<svg version="1.1" id="Layer_1" xmlns="http://www.w3.org/2000/svg" x="0" y="0" viewBox="0 0 1304 668.5" xml:space="preserve"><style>.st5{fill:#efefef}.st6{fill:#eaeaea}.st7{opacity:.18}.st8{fill:none;stroke:#231f20}</style><linearGradient id="SVGID_1_" gradientUnits="userSpaceOnUse" x1="1050.917" y1="504.716" x2="1293.032" y2="504.716"><stop offset="0" stop-color="#0071bc" stop-opacity=".3"/><stop offset="1" stop-color="#e0e0e0"/></linearGradient><path d="M1157.7 638.1c-15-.4-28.2-3.3-39.7-9-11.5-5.5-20.7-13.2-28-23.2-7.1-9.9-11.9-21-14.6-33.3-2.4-12.4-2.2-25.8 1.1-40.4 2-8.8 5.5-17 11-24.5s11.7-13.7 18.7-19c.7-.4.7-.7.2-.9-1.1-1.3-2.2-3.1-3.3-5.1-1.1-2-2-3.5-3.1-4.9-.9-1.1-1.8-2.2-3.1-3.1-1.3-.9-1.8-2-1.5-3.1.4-.4 0-.7-1.1-.7-1.3 0-4 1.1-7.5 3.3-3.7 2.2-8.4 6.2-13.9 11.7-3.1 3.1-6 7.5-8.4 13s-4.6 11.2-6.6 17.2c-1.8 5.7-3.3 11-4.4 15.9s-1.8 7.7-2 9c-.2.7 0-1.5.2-6.4.4-4.9 1.1-10.6 2-17.6.9-6.8 2-13.9 3.5-21.2s3.3-13 5.5-17.2c2-4 4.2-7.5 6.8-11.2 2.6-3.5 5.1-6.6 7.5-9.5 2.4-2.6 4.4-4.9 6.2-6.6 1.5-1.8 2.4-2.6 2.2-2.9-1.8-.7-2.9-1.5-3.1-2.6-.4-1.3-.4-2.6-.4-4 0-1.5.4-2.9.7-4 .4-1.3.7-2 .7-2.4-.7-3.3 0-7.7 1.5-13.2s4.2-11.5 8.2-17.6c4-6.2 8.8-11.9 15-17.4s13.2-9.7 21.8-12.6c8.4-2.9 18.1-4 28.9-3.1s22.9 4.4 36.2 10.8c3.1 1.5 5.5 4 7.5 7.1 1.8 3.1 2.9 6.6 3.3 10.4.4 4 .2 7.9-.7 12.1-.9 4.2-2.4 8.2-4.4 12.1-2.2 4-4.9 7.5-7.9 10.6-3.1 3.1-6.6 6-9.9 7.9-3.5 2.2-6.8 3.5-10.4 4.4-3.3.9-6.4.9-8.8-.2 1.8.7 4 0 7.1-2 2.9-2 5.7-4.4 8.2-7.3 2.6-2.9 4.6-6 6.2-9.3 1.5-3.3 1.5-6 .2-8.2-.9-1.3-1.8-2.9-2.6-4.6s-1.8-3.5-3.1-5.1c-1.3-1.5-2.9-3.1-4.6-4.4s-4.4-2.4-7.5-3.1c-5.5-3.7-11.7-5.1-18.3-4.4-6.6.9-12.8 2.9-18.3 6.4s-10.1 7.9-13.7 13.2c-3.5 5.3-5.1 10.6-4.4 16.1.2 1.1.7 3.7 1.3 7.5.7 4 2.4 7.7 5.1 11.9.7.9 1.8 2.4 3.1 4.6s2.9 4.4 4.4 6.6 3.1 4.2 4.9 6 3.3 2.6 4.9 2.9c3.3.4 7.9 2 13.9 4.4 6 2.6 13.9 6.2 23.8 10.6 4.6 2.2 9.3 2.6 13.7 2 4.6-.9 8.6-2.2 12.1-4s6.2-3.5 8.4-5.1c2.2-1.5 3.1-2 2.9-1.1-.7.9-1.8 2.4-3.5 4.2-1.8 1.8-4.4 3.7-7.5 5.7s-7.1 4-11.7 5.5-9.7 2.6-15.9 2.6c-2.2 0-4.6-.2-7.5-.9s-5.7-1.1-8.8-1.8c-3.1-.7-6.2-1.1-9.5-1.5s-6.4-.7-9.3-.4c-6.8.7-13.5 4.2-19.8 10.8-6.4 6.6-11.7 17.6-15.9 33.1-5.3 19.4-2 37.5 9.9 54.5 3.1 4.6 6.6 8.6 10.8 11.7 4.2 3.1 8.6 5.5 13.2 7.5s9.7 3.3 14.6 4.2c5.1.9 9.9 1.3 14.6 1.5 5.5.2 11.9-.7 19.2-2.4 7.5-1.8 14.3-4.4 20.5-7.7 3.7-2.2 7.3-4.6 11-7.5s7.1-6.2 9.9-9.9c2.9-3.7 5.3-8.2 7.1-12.8 1.8-4.9 2.4-10.4 2.4-16.8-.2-6.2-.9-11.2-2-15.4s-2.6-7.7-4.9-10.8c-3.1-4.4-7.1-7.5-11.9-9.5-4.9-1.8-10.4-3.1-16.5-3.5-4-.4-7.7 0-11.2.9-3.7.9-6.2 3.1-7.7 6.4-1.1 2.6-1.5 6-1.1 9.9.4 4 1.5 7.1 3.7 9 .2.2-.9.2-3.1.2-2.4 0-4.9.4-7.7 1.3-2.9.9-5.7 2.6-8.2 5.1-2.6 2.4-4.2 6.2-4.4 11.2-.7 5.1 0 9.7 1.8 14.1s4 8.2 6.4 11.5 5.1 6 7.5 7.7c2.4 2 4 2.9 4.9 2.9-1.8 0-4-.7-7.1-2.4-2.9-1.5-6-3.5-8.8-5.7-3.1-2.4-6-4.9-8.6-7.7-2.6-2.9-4.6-5.7-6.2-8.4-2.4-4.6-3.7-9.5-4.2-14.8-.4-5.3-.2-10.4.9-15.4 1.1-5.1 2.6-9.9 5.1-14.6 2.4-4.6 5.1-8.6 8.4-12.1 5.5-5.7 12.1-10.1 19.2-12.8 7.3-2.9 14.1-4 20.5-3.5 6.2.4 11.7.9 16.5 1.5 4.9.7 10.1-.2 15.7-2.4 1.1-.4 2.2-.9 2.9-1.5.7-.7 1.8-1.1 2.9-1.5 2.9-1.3 5.5-2.4 7.9-2.9 2.4-.7 5.1-1.8 7.7-3.7 5.5-3.7 9.5-7.5 12.6-11.7 2.9-4.2 4.4-10.4 4.4-18.3 0-2.9-.9-5.7-2.6-8.8-1.8-3.1-4-5.7-6.6-7.9-2.6-2.4-5.5-4.2-8.8-5.7s-6.4-2.2-9.3-2.2c-4.6 0-8.6.7-12.1 2-3.3 1.3-6.2 2.9-8.2 4.9-2.2 2-3.5 4-4.4 6.4s-.9 4.6-.2 7.1c.7 2.9 2.6 6 5.7 9 3.1 3.1 6 6 9 8.4 3.1 2.4 5.5 4.4 7.7 6 2.2 1.5 2.6 2 1.5 1.5-12.1-3.7-21.6-9-28.2-15.9-6.6-6.8-9-15.4-7.5-25.1.7-4 2.6-7.5 6.4-11 3.7-3.5 8.6-7.1 14.8-10.4 3.5-1.8 7.3-2.6 11.2-2.6s8.2.4 12.6 1.5c4.2 1.1 8.4 2.9 12.6 5.1s7.9 4.6 11.5 7.5c4.2 3.5 7.7 7.7 10.4 12.6 2.6 4.9 4.4 9.9 5.5 15 1.1 5.3 1.3 10.4.7 15.4-.7 5.1-2 9.5-4 13-2.9 4.6-6.8 9.5-11.9 14.8-.4.4-.4 1.5-.2 3.1.2 1.8.4 4 .7 6.6.2 2.6.4 6 .7 9.5.2 3.5.2 7.3 0 11.2-.2 3.5-.7 7.1-1.1 10.4-.7 3.5-1.1 6.6-1.8 9.5-.7 2.9-1.1 5.3-2 7.3-.7 2-1.1 3.1-1.5 3.1-.4.2-.4-.7-.4-2.6s.2-4.6.2-7.7v-10.1c0-3.7-.2-7.1-.7-9.9-.9-6.8-2.4-11.5-4.4-14.1s-3.5-3.7-4.2-3.3c-1.5 1.3-3.1 2.6-4.6 4-1.5 1.3-3.1 2.4-4.4 3.3-.7.7-.7 1.5-.4 2.6.2 1.3.9 2.6 1.5 4s1.5 2.6 2.4 4.2c.7 1.5 1.3 2.6 1.5 4 2 8.6 2.2 17.6.7 27.1s-3.3 17.4-5.7 24.3c-3.3 9.3-8.2 17.2-14.3 23.6s-13.7 11.7-21.8 15.7c-8.4 4-17.2 6.8-26.9 8.6-12-.1-21.9.5-31.9.1z" fill="#0071bc" stroke="url(#SVGID_1_)" stroke-miterlimit="10"/><path class="st5" d="M44 397.7c-2.6-6.8-4.2-10.4-7.9-11.5-2-.7-3.5-.7-5.1-.9-2-.2-2.6-.9-2.6-1.8s1.1-1.3 3.3-1.3c9.9 0 20.7.4 22.9.4 3.7 0 15-.4 23.6-.4 2.2 0 3.3.4 3.3 1.5s-1.1 1.5-2.6 1.5c-1.5.2-2.2.2-4 .7-2 .2-2.9 1.5-2.9 3.5s1.5 7.1 3.7 14.3c1.8 5.7 13.7 42.8 19 56.5l28.7-72.1c1.5-4.2 2.9-5.7 4.4-5.7 2 0 3.1 2.9 5.3 7.5l31.8 70.4c4.6-13.2 12.8-40.4 17.2-56 2-6.6 3.1-11.2 3.1-13.5 0-3.3-1.3-4.6-9.7-5.3-1.3 0-2.6-.7-2.6-1.3 0-.9.2-1.8 3.3-1.8 10.1 0 18.3.4 19.6.4 1.1 0 12.4-.2 17.9-.2 2 0 3.1.2 3.1 1.3 0 .9-.7 1.5-2.6 1.5-1.5.2-2.6.2-5.1.9-4.6.9-7.1 5.5-11 16.8-6.8 19-21.8 61.5-33.5 91.7-2 5.3-3.7 9.7-6.4 9.7-2 0-3.3-2.4-6-7.9l-31.8-68.1c-6.6 16.1-20.7 50.1-28.7 67-2.6 5.7-4.4 9-7.1 9-2 0-3.1-2.4-6-9.9L44 397.7zm187.7 40.4c0-22.9-.2-25.4-.4-29.8-.2-3.5-1.8-5.7-5.1-6.4-1.3-.2-2.9-.2-4.2-.4-2-.2-2.4-.9-2.4-1.8s.9-1.3 3.1-1.3c8.6 0 15.2.4 21.2.4 2.6 0 39-.2 41.2-.2 2.6 0 5.7-.2 8.2-.7.9-.2 1.8-.4 2.2-.4.9 0 1.1.7.9 1.3-.2 1.8-.9 3.5-1.1 6.6-.2 3.5-.2 6.4-.9 15 0 1.1-.7 2.2-1.5 2.2s-1.3-.7-1.5-2c-.2-2-.2-3.1-.9-5.1-.9-3.1-2.6-5.1-9.3-5.7-5.3-.2-16.8-.7-21.2-.7-.9 0-1.1.4-1.1 1.3v29.1c0 .9.2 1.3 1.1 1.3 4.2 0 14.1 0 19.6-.2 7.7-.2 9.7-.9 11.5-3.5.7-1.3 1.3-1.8 2-1.8.9 0 1.1.9 1.1 1.8 0 1.5-.9 7.7-1.1 12.8-.2 3.1-.2 10.4-.2 11.9 0 2-.4 2.4-1.3 2.4s-1.3-.7-1.5-2.2c-.2-.9-.2-1.8-.2-2.6-.9-4.2-2.4-6.8-9.9-7.3-4.4-.2-15.2-.4-19.6-.4-.9 0-.9.2-.9 1.1v9.9c0 4.6-.2 11 0 16.8.2 9.7 2 11.9 18.1 11.9 3.7 0 9.3-.2 13.2-1.5 4-1.5 5.5-4.9 6.8-11.2.2-1.5.9-2.4 2-2.4s1.3 1.1 1.3 2.9c0 6-1.3 17.2-2 19.8-1.1 3.5-2.2 3.7-7.5 3.7-21.2 0-31.5-.9-46.5-.9-6.6 0-13.5.4-21.6.4-2.6 0-3.3-.9-3.3-1.8 0-.7.4-1.3 2.9-1.3 1.3-.2 2.6-.2 4.2-.4 4.6-.9 5.1-6.2 5.5-15.9 0-5.3.2-12.8.2-20.5v-24.2h-1.1zm96.4 0c0-20.1-.2-23.8-.2-28.2-.2-5.7-2.4-7.3-6.6-7.9-1.8-.2-3.3-.2-4.9-.4-2 0-2.6-.9-2.6-1.5 0-1.1 1.3-1.5 2.9-1.5 9 0 15.4.4 23.4.4 10.1 0 19.2-.4 24.7-.4 31.3 0 37.1 13.2 37.1 21.2 0 11-8.2 18.1-17.9 22.5 15.7 4.6 28 13.2 28 30 0 15.4-15.7 30.4-44.3 30.4-4.9 0-24.3-.9-27.6-.9-6.6 0-13.5.4-21.4.4-2.2 0-3.1-.7-3.1-1.5s.4-1.5 2.6-1.5c1.8-.2 2.9-.2 4-.4 3.3-.4 4.9-2 5.3-7.5.9-7.9.9-15.2.9-33.5v-19.7h-.3zm26.2 24.2c0 6.8-.2 15.4.4 22.7.2 3.1.7 4.9 3.1 6.4 2.6 1.5 6.6 2 9.3 2 7.5 0 15.9-4.9 15.9-18.1 0-7.1-1.3-14.1-7.1-19.6-4-4-9.3-5.5-13.5-6-3.7-.2-6.2 0-7.5.2-.4 0-.9.2-.9.9v11.5h.3zm0-23.1c0 1.1.9 1.3 1.5 1.3 2.2.7 6.8.4 8.6.4 2.6 0 7.1-.4 8.8-2 2.9-2.2 4.4-6.6 4.4-12.4 0-11.5-5.7-19.6-16.8-19.6-2.2 0-4.2.2-5.3.7-.7.2-1.3.7-1.3 2.6l.1 29zm134.8-10.9c0-23.4 0-27.8-.2-32.9-.2-4.6-1.1-8.8-7.1-9.5-1.3-.2-2.9-.2-6-.4-2.4-.2-3.1-.9-3.1-1.8s.9-1.3 3.7-1.3c4 0 18.5.4 25.6.4 5.3 0 12.4-.2 25.8-.2 27.1.2 48.5 3.7 62.9 18.5 8.2 8.2 15.2 21.4 15.2 40.4 0 19.2-8.4 34.8-17.4 43.4-7.7 7.9-22.5 19-54.3 19-6.4 0-11.7-.2-17-.7-6.2-.7-12.8-1.1-15.7-1.1-3.7 0-7.7 0-12.1.2s-6.6.2-11 .2c-2.6 0-3.1-.9-3.1-1.5 0-1.1 1.3-1.5 3.1-1.5 2-.2 3.1-.2 4.9-.7 3.1-.4 4.9-3.5 5.3-9.7.4-7.7.9-19 .9-32.6v-28.2h-.4zm28 17.7c0 16.8.2 27.8.2 30.9.2 6.6.9 9.7 2.6 11.5 2.9 3.5 9.3 5.7 16.3 5.7 11 0 20.5-2.4 28.9-11 8.2-8.2 10.4-22.5 10.4-37.3 0-14.6-5.3-27.3-11.9-36.4-11-14.3-26-17.2-36.6-17.2-3.5 0-7.1.4-8.6 1.3-1.3.7-1.3 1.3-1.3 2.9.2 5.3-.2 16.8-.2 29.8V446h.2zm118.4-7.9c0-22.9-.2-25.4-.4-29.8-.2-3.5-1.8-5.7-5.1-6.4-1.3-.2-2.9-.2-4.2-.4-2-.2-2.4-.9-2.4-1.8s.9-1.3 3.1-1.3c8.6 0 15.2.4 21.2.4 2.6 0 39-.2 41.2-.2 2.6 0 5.7-.2 8.2-.7.9-.2 1.8-.4 2.2-.4.9 0 1.1.7.9 1.3-.2 1.8-.9 3.5-1.1 6.6-.2 3.5-.2 6.4-.9 15 0 1.1-.7 2.2-1.5 2.2-.9 0-1.3-.7-1.5-2-.2-2-.2-3.1-.9-5.1-.9-3.1-2.6-5.1-9.3-5.7-5.3-.2-16.8-.7-21.2-.7-.9 0-1.1.4-1.1 1.3v29.1c0 .9.2 1.3 1.1 1.3 4.2 0 14.1 0 19.6-.2 7.7-.2 9.7-.9 11.5-3.5.7-1.3 1.3-1.8 2-1.8.9 0 1.1.9 1.1 1.8 0 1.5-.9 7.7-1.1 12.8-.2 3.1-.2 10.4-.2 11.9 0 2-.4 2.4-1.3 2.4s-1.3-.7-1.5-2.2c-.2-.9-.2-1.8-.2-2.6-.9-4.2-2.4-6.8-9.9-7.3-4.4-.2-15.2-.4-19.6-.4-.9 0-.9.2-.9 1.1v9.9c0 4.6-.2 11 0 16.8.2 9.7 2 11.9 18.1 11.9 3.7 0 9.3-.2 13.2-1.5 4-1.5 5.5-4.9 6.8-11.2.2-1.5.9-2.4 2-2.4s1.3 1.1 1.3 2.9c0 6-1.3 17.2-2 19.8-1.1 3.5-2.2 3.7-7.5 3.7-21.2 0-31.5-.9-46.5-.9-6.6 0-13.5.4-21.6.4-2.6 0-3.3-.9-3.3-1.8 0-.7.4-1.3 2.9-1.3 1.3-.2 2.6-.2 4.2-.4 4.6-.9 5.1-6.2 5.5-15.9 0-5.3.2-12.8.2-20.5v-24.2h-1.1zm90.6 62.1c-2.6-.9-3.1-3.1-3.1-5.5 0-11.9.2-17 .9-21.2.2-2.6 1.1-3.1 2-3.1s1.3.7 1.3 2c.2 1.3.2 2.4.4 3.7 2 11.9 13.5 18.7 25.1 18.7 12.8 0 16.8-6 16.8-11.7 0-5.5-2-9.9-13.9-18.1l-8.8-6c-17-11.7-21.6-21-21.6-33.7.2-15.9 13.9-29.1 37.1-29.1 6.6 0 10.8.2 17.2 1.5 2.2.4 4.9.9 7.1 1.5 1.3.2 1.8.9 1.8 2-.2 5.1-.4 7.5-.4 20.1 0 2.4-.4 3.3-1.5 3.3-.9 0-1.5-.2-2-2.6-.2-1.5-.7-4.6-2.2-7.7-2.9-5.1-10.4-9.9-19.8-9.9-11.9 0-15.7 6.6-15.7 12.6s2.9 10.1 10.8 15l8.2 5.1c20.5 12.8 26.2 20.7 26.2 34.4 0 11-4.9 20.5-15.9 26.5-8.4 4.9-18.3 5.5-25.8 5.5-11.4.7-18.6-.8-24.2-3.3zm92.7-62.1c0-21.4 0-25.1-.4-29.3-.2-3.7-1.3-6.2-4.9-6.6-.9-.2-2.6-.4-4.4-.7-2-.2-2.6-.7-2.6-1.5s.4-1.5 3.1-1.5c5.5 0 20.7.4 21.2.4.9 0 18.7-.4 24-.4 2.6 0 2.9.7 2.9 1.5 0 1.1-1.1 1.3-2.9 1.5-1.3.2-1.5.2-3.1.4-3.7.9-5.1 2.2-5.7 7.1-.4 4.4-.4 7.7-.4 29.1v24c0 10.6.2 23.6.9 29.3.2 3.5 1.3 6 5.5 6.8 2 .4 4.2.4 6 .7 2.4 0 3.1.9 3.1 1.8 0 .7-.7 1.3-3.1 1.3-9.9 0-26.2-.4-26.9-.4-.2 0-16.8.4-21.2.4-2.4 0-3.3-.4-3.3-1.5 0-.9.9-1.5 2.4-1.5 1.3-.2 2.6-.2 4.6-.4 3.1-.7 4.2-3.5 4.6-7.5.9-5.7.9-15.2.9-28.9v-24l-.3-.1zm161.8 50c0 9-.2 9.9-3.1 11-7.1 2.4-21.8 5.1-34.8 5.1-41.2 0-68.4-17.9-68.4-54 0-23.2 12.8-37.5 26-44.8 14.8-8.4 30.9-9 41.5-9 8.2 0 15.7.9 22.5 1.8 5.3.7 9.9 1.5 14.1 1.8 1.3 0 1.8.9 1.3 2.2-.2 1.3-1.8 7.3-1.8 25.8 0 2.2-.7 3.1-1.8 3.1s-1.3-1.3-1.5-2.6c-.2-1.8-.4-3.5-1.3-5.5-1.8-10.6-14.8-17.2-35.5-17.2-11 0-19.4 3.3-24.9 10.1-4.9 6-8.2 15.7-8.2 28.4 0 23.6 10.6 50.5 38.8 50.5 2.9 0 6.8-.2 8.4-2 .9-.7 1.3-1.8 1.3-3.3v-7.1c0-5.3 0-10.6.2-15.9 0-8.6-2-11.5-7.1-12.1-2-.2-3.7-.4-6.2-.7-1.3-.2-2.2-1.1-2.2-2s.9-1.3 3.1-1.3c9.9 0 21.2.2 24.7.2 5.5 0 15-.2 23.6-.2 2 0 3.1.2 3.1 1.3 0 .9-.7 1.3-2.2 1.8-.7 0-2.6.2-3.7.2-3.7.4-5.1 2-5.3 6.6-.7 4.9-.7 11.9-.7 18.5l.1 9.3zm37.1-84.7c.2-4.6.7-7.1 2.6-7.1.9 0 1.3 0 5.3 3.1 6.8 5.3 28.7 24 46.3 39.7 15.7 13.9 23.2 20.1 27.3 23.8l-.9-48.5c-.2-7.7-1.3-11.2-7.5-12.1-1.8-.2-3.5-.4-5.7-.7-2-.2-2.6-.9-2.6-1.5 0-1.1 1.3-1.5 2.6-1.5 5.3 0 15 .4 21.4.4 3.5 0 11-.4 16.8-.4 2.4 0 3.1.7 3.1 1.3s-.2 1.5-2.4 1.8c-1.8.2-2.2.2-3.1.2-4.9.7-6.4 2.6-6.8 11.5-1.3 25.8-1.8 54-2 81.6 0 7.9-.9 9.3-3.1 9.3-2.4 0-7.3-3.5-18.5-12.8-9.9-8.2-21.2-17.9-28-24-7.7-6.8-19.8-17.2-32-28.4l1.3 44.5c.2 9.5.7 13.5 4.9 14.6 2.6.7 4.2.9 7.1.9 2.4.2 3.1.9 3.1 1.5 0 1.1-.9 1.5-3.5 1.5-4 0-8.2-.2-18.3-.4-4 0-15.7.4-20.3.4-2.4 0-3.1-.4-3.1-1.5 0-.9.7-1.3 2.6-1.5 1.3-.2 2.2-.2 4-.2 6-.9 7.1-4 7.7-16.8 1-28.4 1-60.4 1.7-78.7zM54.2 571c0-19.6 0-23.4-.2-27.8-.2-4-.9-7.5-6-7.9-1.1-.2-2.4-.2-5.1-.4-2-.2-2.6-.9-2.6-1.5 0-.9.9-1.1 3.1-1.1 3.3 0 15.7.4 21.6.4 4.4 0 10.4-.2 21.8-.2 22.9.2 40.8 3.1 53.1 15.7 6.8 6.8 12.8 18.1 12.8 34 0 16.3-7.1 29.6-14.8 36.8-6.6 6.6-19 15.9-45.9 15.9-5.3 0-9.9-.2-14.3-.4-5.3-.4-10.8-.9-13.2-.9-3.3 0-6.4 0-10.1.2s-5.5.2-9.3.2c-2.2 0-2.6-.7-2.6-1.3 0-.9 1.1-1.3 2.6-1.3 1.8-.2 2.6-.2 4.2-.4 2.6-.4 4-2.9 4.4-8.2.4-6.4.7-15.9.7-27.6v-24h-.2v-.2zM78 586c0 14.1.2 23.4.2 26 .2 5.5.9 8.2 2.2 9.7 2.4 2.9 7.9 4.9 13.9 4.9 9.5 0 17.2-2 24.5-9.5 7.1-7.1 8.8-19 8.8-31.5 0-12.1-4.4-23.2-10.1-30.7-9.3-12.1-22.1-14.6-30.9-14.6-2.9 0-6 .4-7.3 1.1-1.1.4-1.1 1.1-1.1 2.4.2 4.6-.2 14.1-.2 25.1V586zm99.9-6.6c0-19.4-.2-21.4-.4-25.1-.2-2.9-1.5-4.9-4.2-5.3-1.1-.2-2.4-.2-3.5-.4-1.8-.2-2-.9-2-1.5s.7-1.1 2.6-1.1c7.3 0 12.8.4 17.9.4 2.2 0 33.1-.2 34.8-.2 2.2 0 4.9-.2 6.8-.4.9-.2 1.5-.4 2-.4.7 0 .9.4.9 1.1-.2 1.5-.7 2.9-.9 5.7-.2 2.9-.2 5.3-.7 12.6 0 .9-.4 2-1.3 2-.7 0-1.1-.4-1.3-1.5-.2-1.5-.2-2.6-.7-4.2-.7-2.6-2.2-4.2-7.9-4.9-4.4-.2-14.1-.4-17.9-.4-.7 0-.9.4-.9 1.1v24.5c0 .9.2 1.1.9 1.1 3.5 0 11.9 0 16.5-.2 6.6-.2 8.2-.7 9.7-2.9.4-1.1 1.1-1.5 1.5-1.5.9 0 .9.9.9 1.5 0 1.3-.9 6.4-.9 10.8-.2 2.6-.2 8.8-.2 10.1 0 1.5-.4 2-1.1 2s-1.1-.4-1.3-2c-.2-.7-.2-1.5-.2-2.2-.7-3.5-2-5.7-8.4-6.2-3.7-.2-12.8-.4-16.5-.4-.7 0-.9.2-.9.9v8.4c0 4-.2 9.5 0 14.1.2 8.2 1.5 10.1 15.2 10.1 3.1 0 7.7-.2 11-1.3 3.3-1.3 4.6-4.2 5.7-9.5.2-1.3.9-2 1.5-2 .9 0 1.1.9 1.1 2.4 0 5.1-1.1 14.6-1.8 16.8-.9 2.9-2 3.1-6.4 3.1-17.9 0-26.5-.7-39.3-.7-5.7 0-11.5.4-18.3.4-2.2 0-2.9-.7-2.9-1.5 0-.4.4-1.1 2.4-1.1 1.1-.2 2.2-.2 3.5-.4 4-.7 4.2-5.3 4.6-13.5 0-4.4.2-10.8.2-17.2v-21l.2-.1zm75.6-21.8c-3.5-7.5-4.6-8.2-8.6-8.8 0-.2-2-.2-2.9-.4-1.1-.2-1.5-.9-1.5-1.3 0-.9.9-1.3 2.2-1.3 6.6 0 13.7.4 18.5.4 4.6 0 11.2-.4 21.4-.4 2 0 2.6.4 2.6 1.3 0 .7-.7 1.1-1.8 1.3-1.3.2-1.8.2-2.9.4-3.5.2-4 1.5-4 2.9 0 1.5.4 3.5 2.6 8.6 5.3 13.5 12.8 30 18.1 43 4.9-10.1 14.1-32.2 19.8-45.7 1.3-3.3 1.8-4.9 1.8-5.7 0-1.5-.7-2.2-3.1-2.6-1.5-.2-3.5-.4-4.9-.7-1.8-.2-2.2-.7-2.2-1.3 0-.9.7-1.3 2.6-1.3 8.4 0 14.6.4 16.3.4 2 0 10.1-.4 13.9-.4 2 0 2.6.4 2.6 1.3s-.7 1.1-2.2 1.3-3.3.2-5.1.9c-2.9 1.1-4.4 3.5-7.7 10.1-4.9 9.9-9.5 19.8-16.3 34.6-7.7 16.3-12.8 26.5-16.1 32.6-3.5 6.6-4.9 8.2-6.4 8.2s-2.6-1.5-4.9-7.1l-31.8-70.3zm101.3 21.8c0-19.4-.2-21.4-.4-25.1-.2-2.9-1.5-4.9-4.2-5.3-1.1-.2-2.4-.2-3.5-.4-1.8-.2-2-.9-2-1.5s.7-1.1 2.6-1.1c7.3 0 12.8.4 17.9.4 2.2 0 33.1-.2 34.8-.2 2.2 0 4.9-.2 6.8-.4.9-.2 1.5-.4 2-.4.7 0 .9.4.9 1.1-.2 1.5-.7 2.9-.9 5.7-.2 2.9-.2 5.3-.7 12.6 0 .9-.4 2-1.3 2-.7 0-1.1-.4-1.3-1.5-.2-1.5-.2-2.6-.7-4.2-.7-2.6-2.2-4.2-7.9-4.9-4.4-.2-14.1-.4-17.9-.4-.7 0-.9.4-.9 1.1v24.5c0 .9.2 1.1.9 1.1 3.5 0 11.9 0 16.5-.2 6.6-.2 8.2-.7 9.7-2.9.4-1.1 1.1-1.5 1.5-1.5.9 0 .9.9.9 1.5 0 1.3-.9 6.4-.9 10.8-.2 2.6-.2 8.8-.2 10.1 0 1.5-.4 2-1.1 2s-1.1-.4-1.3-2c-.2-.7-.2-1.5-.2-2.2-.7-3.5-2-5.7-8.4-6.2-3.7-.2-12.8-.4-16.5-.4-.7 0-.9.2-.9.9v8.4c0 4-.2 9.5 0 14.1.2 8.2 1.5 10.1 15.2 10.1 3.1 0 7.7-.2 11-1.3 3.3-1.3 4.6-4.2 5.7-9.5.2-1.3.9-2 1.5-2 .9 0 1.1.9 1.1 2.4 0 5.1-1.1 14.6-1.8 16.8-.9 2.9-2 3.1-6.4 3.1-17.9 0-26.5-.7-39.3-.7-5.7 0-11.5.4-18.3.4-2.2 0-2.9-.7-2.9-1.5 0-.4.4-1.1 2.4-1.1 1.1-.2 2.2-.2 3.5-.4 4-.7 4.2-5.3 4.6-13.5 0-4.4.2-10.8.2-17.2v-21l.2-.1zm104.1 20.5c0 11-.4 19.4 1.5 22.1 1.8 2.4 4 2.9 13.9 2.9 6.6 0 9.9-.2 13.2-1.3 3.3-1.3 6-4.2 7.3-10.6.2-1.3.7-2.4 1.8-2.4.9 0 1.1.9 1.1 2.4 0 2.9-1.8 14.6-2.9 17.9-1.1 3.1-2 3.1-6.4 3.1-18.1 0-29.3-.7-41.9-.7-5.7 0-11.7.4-18.5.4-2 0-2.9-.4-2.9-1.5 0-.4.7-1.1 2.2-1.1 1.1-.2 1.5-.2 2.9-.2 4.9-.9 5.3-2.6 5.7-13.5 0-4.6.2-11 .2-17.4v-20.3c0-19.4-.2-20.7-.4-24.5-.2-3.3-1.3-5.1-4.2-6-1.1-.2-2.6-.4-4.4-.7-1.3-.2-2.4-.4-2.4-1.3s.9-1.3 3.3-1.3c7.3 0 13.2.4 18.3.4.7 0 16.3-.4 20.5-.4 2.2 0 2.6.4 2.6 1.1 0 1.1-1.1 1.5-2.2 1.5-1.3.2-2 .2-3.5.4-3.3.4-4.2 2.6-4.6 6.8-.2 3.7-.4 5.5-.4 25.1v19l.2.1zm47.4-9.9c0-24.3 16.5-46.1 51.8-46.1 30.7 0 49.8 20.5 49.8 43.2 0 27.1-19 47.6-50.5 47.6-35.7.5-51.1-24-51.1-44.7zm75.8 2.9c0-17.6-6.4-40.8-28.2-40.8-10.4 0-22.1 5.3-22.1 32.4 0 21.4 8.6 42.8 28.7 42.8 7.5-.2 21.6-2.9 21.6-34.4zm49.9-13.5c0-11.7 0-21-.4-24.7-.2-2.9-.9-5.1-4.2-5.7-1.8-.2-2.9-.4-4.2-.4-1.5-.2-2.2-.4-2.2-1.1s.2-1.5 2.6-1.5c4.6 0 18.1.4 19.8.4 6 0 12.6-.4 18.1-.4 16.5 0 25.6 3.3 30.7 8.2 2.6 2.6 6.8 7.7 6.8 15.7 0 18.7-18.3 27.8-34.6 27.8-.9 0-3.1-.2-4-.4s-1.3-.7-1.3-1.1c0-.7.4-1.3 2.6-1.3 10.6 0 14.3-7.5 14.3-17.6 0-9-1.8-14.8-5.7-19-2.6-3.3-6.4-4.9-11-4.9-1.5 0-2.2.2-2.6.2-1.1.2-2 .9-2 3.1v43.4c0 8.8.2 19.4.7 24.3.2 3.3 1.3 5.7 4.9 6.4 1.5.4 3.5.4 5.1.4 2 .2 2.4.4 2.4 1.5 0 .4-.7 1.1-2.6 1.1-8.2 0-22.3-.4-22.9-.4-.2 0-14.6.4-18.3.4-2 0-2.6-.4-2.6-1.3s1.1-1.1 2.4-1.3c1.1-.2 2.4-.2 3.5-.2 2.2-.4 3.5-2 4-6.6.7-4.9.9-12.8.9-24v-21h-.2zm184.1 39.1c.9 7.5 2.4 10.4 6.4 11.5 2.2.7 3.5.7 5.5.9 1.8.2 2.2.7 2.2 1.5 0 .9-.4 1.1-2.6 1.1-11.7 0-18.7.2-34.6-.7-2 0-2.4-.9-2.4-1.5 0-.7.4-.9 1.1-1.1 2.2-.9 2.6-1.1 2-7.1l-3.5-39.3-24.5 42.8c-3.3 6-4.2 6.6-5.3 6.6-1.3 0-2-.9-5.7-6.4-5.1-7.7-11-18.5-16.5-27.1-2.2-3.5-6.8-11.9-8.8-14.8l-2.9 29.3c-.4 5.7-.4 7.9-.4 9.7 0 3.5 1.1 5.3 4.2 6 1.5.2 2.6.4 4.2.4 1.5 0 2.2.4 2.2 1.1 0 .9-.4 1.5-2.6 1.5-5.3 0-11.9-.4-15.9-.4-4.2 0-9.7.4-14.6.4-1.1 0-2.4-.2-2.4-1.5 0-.7.4-1.1 2.2-1.1 1.1-.2 2.2-.2 3.5-.2 3.5-.7 5.1-2.6 6.4-11.5l10.6-69.9c.7-4 1.5-5.1 2.6-5.1s2.2 1.1 4.9 5.1l34.8 53.1 33.1-53.8c2.2-3.3 3.3-4.2 4.4-4.2 1.5 0 2 1.5 2.6 4.9l9.8 69.8zm29.8-39.1c0-19.4-.2-21.4-.4-25.1-.2-2.9-1.5-4.9-4.2-5.3-1.1-.2-2.4-.2-3.5-.4-1.8-.2-2-.9-2-1.5s.7-1.1 2.6-1.1c7.3 0 12.8.4 17.9.4 2.2 0 33.1-.2 34.8-.2 2.2 0 4.9-.2 6.8-.4.9-.2 1.5-.4 2-.4.7 0 .9.4.9 1.1-.2 1.5-.7 2.9-.9 5.7-.2 2.9-.2 5.3-.7 12.6 0 .9-.4 2-1.3 2-.7 0-1.1-.4-1.3-1.5-.2-1.5-.2-2.6-.7-4.2-.7-2.6-2.2-4.2-7.9-4.9-4.4-.2-14.1-.4-17.9-.4-.7 0-.9.4-.9 1.1v24.5c0 .9.2 1.1.9 1.1 3.5 0 11.9 0 16.5-.2 6.6-.2 8.2-.7 9.7-2.9.4-1.1 1.1-1.5 1.5-1.5.9 0 .9.9.9 1.5 0 1.3-.9 6.4-.9 10.8-.2 2.6-.2 8.8-.2 10.1 0 1.5-.4 2-1.1 2-.7 0-1.1-.4-1.3-2-.2-.7-.2-1.5-.2-2.2-.7-3.5-2-5.7-8.4-6.2-3.7-.2-12.8-.4-16.5-.4-.7 0-.9.2-.9.9v8.4c0 4-.2 9.5 0 14.1.2 8.2 1.5 10.1 15.2 10.1 3.1 0 7.7-.2 11-1.3 3.3-1.3 4.6-4.2 5.7-9.5.2-1.3.9-2 1.5-2 .9 0 1.1.9 1.1 2.4 0 5.1-1.1 14.6-1.8 16.8-.9 2.9-2 3.1-6.4 3.1-17.9 0-26.5-.7-39.3-.7-5.7 0-11.5.4-18.3.4-2.2 0-2.9-.7-2.9-1.5 0-.4.4-1.1 2.4-1.1 1.1-.2 2.2-.2 3.5-.4 4-.7 4.2-5.3 4.6-13.5 0-4.4.2-10.8.2-17.2v-21l.2-.1zm80.7-29.3c.2-4 .4-6 2.2-6 .7 0 1.1 0 4.6 2.6 5.7 4.6 24.3 20.3 39.3 33.5 13.2 11.7 19.6 17 23.2 20.1l-.7-41c-.2-6.4-1.1-9.5-6.4-10.4-1.5-.2-2.9-.4-4.9-.4-1.5-.2-2.2-.9-2.2-1.3 0-.9 1.1-1.3 2.2-1.3 4.4 0 12.8.4 18.1.4 2.9 0 9.3-.4 14.1-.4 2 0 2.6.4 2.6 1.1 0 .4-.2 1.3-2 1.5-1.5.2-2 .2-2.6.2-4 .4-5.3 2.2-5.7 9.7-1.1 21.8-1.5 45.7-1.5 69 0 6.6-.9 7.9-2.6 7.9-2 0-6.2-2.9-15.7-10.8-8.4-7.1-17.9-15.2-23.6-20.3-6.4-5.7-16.8-14.6-27.1-24l1.1 37.7c.2 7.9.4 11.5 4.2 12.4 2.2.4 3.5.7 6 .9 2 .2 2.6.7 2.6 1.3 0 .9-.9 1.3-2.9 1.3-3.3 0-7.1-.2-15.4-.4-3.3 0-13.2.4-17.2.4-2 0-2.6-.4-2.6-1.3 0-.7.4-1.1 2.2-1.3 1.1-.2 2-.2 3.3-.2 5.1-.7 6-3.3 6.4-14.1.6-24.5.6-51.4 1-66.8zm156.4 49.6c0 8.8.2 19.2.4 24 .2 2.9 1.1 6 4.9 6.4 1.5.2 2.9.4 4.9.4 2.2.2 2.6.9 2.6 1.5s-.7 1.1-2.9 1.1c-8.4 0-21-.4-22.7-.4s-14.6.4-18.3.4c-2 0-2.9-.2-2.9-1.1s1.1-1.3 2.4-1.5c1.1-.2 2.4-.2 4-.4 2.6-.4 3.5-2.9 4-6.2.4-5.1.4-13.2.4-24.5v-44.5c-4.6 0-12.4-.2-18.3.2-6.6.4-8.8 2-10.4 6.6-.2.9-.4 1.8-.9 2.6-.2.9-.7 1.8-1.5 1.8-.9 0-1.1-1.1-1.1-2.4.7-5.7 1.8-11.7 2.6-17 .2-1.8.9-2.6 1.5-2.6s1.5.4 3.5.9c1.8.4 9 .9 13.7.9h53.6c3.5 0 5.7-.2 7.3-.4 2.2-.4 3.3-.7 4-.7 1.3 0 1.1.7 1.1 4 0 1.3-.9 13.5-.9 16.3-.2 2-.9 2.4-1.5 2.4s-1.1-.7-1.3-2c0-1.5-.2-2.2-.2-2.9-.4-3.5-2-6.2-8.2-6.8-4.2-.2-10.8-.9-20.3-.9v44.8h.5z"/><path class="st6" d="M44 397.7c-2.6-6.8-4.2-10.4-7.9-11.5-2-.7-3.5-.7-5.1-.9-2-.2-2.6-.9-2.6-1.8s1.1-1.3 3.3-1.3c9.9 0 20.7.4 22.9.4 3.7 0 15-.4 23.6-.4 2.2 0 3.3.4 3.3 1.5s-1.1 1.5-2.6 1.5c-1.5.2-2.2.2-4 .7-2 .2-2.9 1.5-2.9 3.5s1.5 7.1 3.7 14.3c1.8 5.7 13.7 42.8 19 56.5l28.7-72.1c1.5-4.2 2.9-5.7 4.4-5.7 2 0 3.1 2.9 5.3 7.5l31.8 70.4c4.6-13.2 12.8-40.4 17.2-56 2-6.6 3.1-11.2 3.1-13.5 0-3.3-1.3-4.6-9.7-5.3-1.3 0-2.6-.7-2.6-1.3 0-.9.2-1.8 3.3-1.8 10.1 0 18.3.4 19.6.4 1.1 0 12.4-.2 17.9-.2 2 0 3.1.2 3.1 1.3 0 .9-.7 1.5-2.6 1.5-1.5.2-2.6.2-5.1.9-4.6.9-7.1 5.5-11 16.8-6.8 19-21.8 61.5-33.5 91.7-2 5.3-3.7 9.7-6.4 9.7-2 0-3.3-2.4-6-7.9l-31.8-68.1c-6.6 16.1-20.7 50.1-28.7 67-2.6 5.7-4.4 9-7.1 9-2 0-3.1-2.4-6-9.9L44 397.7zm187.7 40.4c0-22.9-.2-25.4-.4-29.8-.2-3.5-1.8-5.7-5.1-6.4-1.3-.2-2.9-.2-4.2-.4-2-.2-2.4-.9-2.4-1.8s.9-1.3 3.1-1.3c8.6 0 15.2.4 21.2.4 2.6 0 39-.2 41.2-.2 2.6 0 5.7-.2 8.2-.7.9-.2 1.8-.4 2.2-.4.9 0 1.1.7.9 1.3-.2 1.8-.9 3.5-1.1 6.6-.2 3.5-.2 6.4-.9 15 0 1.1-.7 2.2-1.5 2.2s-1.3-.7-1.5-2c-.2-2-.2-3.1-.9-5.1-.9-3.1-2.6-5.1-9.3-5.7-5.3-.2-16.8-.7-21.2-.7-.9 0-1.1.4-1.1 1.3v29.1c0 .9.2 1.3 1.1 1.3 4.2 0 14.1 0 19.6-.2 7.7-.2 9.7-.9 11.5-3.5.7-1.3 1.3-1.8 2-1.8.9 0 1.1.9 1.1 1.8 0 1.5-.9 7.7-1.1 12.8-.2 3.1-.2 10.4-.2 11.9 0 2-.4 2.4-1.3 2.4s-1.3-.7-1.5-2.2c-.2-.9-.2-1.8-.2-2.6-.9-4.2-2.4-6.8-9.9-7.3-4.4-.2-15.2-.4-19.6-.4-.9 0-.9.2-.9 1.1v9.9c0 4.6-.2 11 0 16.8.2 9.7 2 11.9 18.1 11.9 3.7 0 9.3-.2 13.2-1.5 4-1.5 5.5-4.9 6.8-11.2.2-1.5.9-2.4 2-2.4s1.3 1.1 1.3 2.9c0 6-1.3 17.2-2 19.8-1.1 3.5-2.2 3.7-7.5 3.7-21.2 0-31.5-.9-46.5-.9-6.6 0-13.5.4-21.6.4-2.6 0-3.3-.9-3.3-1.8 0-.7.4-1.3 2.9-1.3 1.3-.2 2.6-.2 4.2-.4 4.6-.9 5.1-6.2 5.5-15.9 0-5.3.2-12.8.2-20.5v-24.2h-1.1zm96.4 0c0-20.1-.2-23.8-.2-28.2-.2-5.7-2.4-7.3-6.6-7.9-1.8-.2-3.3-.2-4.9-.4-2 0-2.6-.9-2.6-1.5 0-1.1 1.3-1.5 2.9-1.5 9 0 15.4.4 23.4.4 10.1 0 19.2-.4 24.7-.4 31.3 0 37.1 13.2 37.1 21.2 0 11-8.2 18.1-17.9 22.5 15.7 4.6 28 13.2 28 30 0 15.4-15.7 30.4-44.3 30.4-4.9 0-24.3-.9-27.6-.9-6.6 0-13.5.4-21.4.4-2.2 0-3.1-.7-3.1-1.5s.4-1.5 2.6-1.5c1.8-.2 2.9-.2 4-.4 3.3-.4 4.9-2 5.3-7.5.9-7.9.9-15.2.9-33.5v-19.7h-.3zm26.2 24.2c0 6.8-.2 15.4.4 22.7.2 3.1.7 4.9 3.1 6.4 2.6 1.5 6.6 2 9.3 2 7.5 0 15.9-4.9 15.9-18.1 0-7.1-1.3-14.1-7.1-19.6-4-4-9.3-5.5-13.5-6-3.7-.2-6.2 0-7.5.2-.4 0-.9.2-.9.9v11.5h.3zm0-23.1c0 1.1.9 1.3 1.5 1.3 2.2.7 6.8.4 8.6.4 2.6 0 7.1-.4 8.8-2 2.9-2.2 4.4-6.6 4.4-12.4 0-11.5-5.7-19.6-16.8-19.6-2.2 0-4.2.2-5.3.7-.7.2-1.3.7-1.3 2.6l.1 29zm134.8-10.9c0-23.4 0-27.8-.2-32.9-.2-4.6-1.1-8.8-7.1-9.5-1.3-.2-2.9-.2-6-.4-2.4-.2-3.1-.9-3.1-1.8s.9-1.3 3.7-1.3c4 0 18.5.4 25.6.4 5.3 0 12.4-.2 25.8-.2 27.1.2 48.5 3.7 62.9 18.5 8.2 8.2 15.2 21.4 15.2 40.4 0 19.2-8.4 34.8-17.4 43.4-7.7 7.9-22.5 19-54.3 19-6.4 0-11.7-.2-17-.7-6.2-.7-12.8-1.1-15.7-1.1-3.7 0-7.7 0-12.1.2s-6.6.2-11 .2c-2.6 0-3.1-.9-3.1-1.5 0-1.1 1.3-1.5 3.1-1.5 2-.2 3.1-.2 4.9-.7 3.1-.4 4.9-3.5 5.3-9.7.4-7.7.9-19 .9-32.6v-28.2h-.4zm28 17.7c0 16.8.2 27.8.2 30.9.2 6.6.9 9.7 2.6 11.5 2.9 3.5 9.3 5.7 16.3 5.7 11 0 20.5-2.4 28.9-11 8.2-8.2 10.4-22.5 10.4-37.3 0-14.6-5.3-27.3-11.9-36.4-11-14.3-26-17.2-36.6-17.2-3.5 0-7.1.4-8.6 1.3-1.3.7-1.3 1.3-1.3 2.9.2 5.3-.2 16.8-.2 29.8V446h.2zm118.4-7.9c0-22.9-.2-25.4-.4-29.8-.2-3.5-1.8-5.7-5.1-6.4-1.3-.2-2.9-.2-4.2-.4-2-.2-2.4-.9-2.4-1.8s.9-1.3 3.1-1.3c8.6 0 15.2.4 21.2.4 2.6 0 39-.2 41.2-.2 2.6 0 5.7-.2 8.2-.7.9-.2 1.8-.4 2.2-.4.9 0 1.1.7.9 1.3-.2 1.8-.9 3.5-1.1 6.6-.2 3.5-.2 6.4-.9 15 0 1.1-.7 2.2-1.5 2.2-.9 0-1.3-.7-1.5-2-.2-2-.2-3.1-.9-5.1-.9-3.1-2.6-5.1-9.3-5.7-5.3-.2-16.8-.7-21.2-.7-.9 0-1.1.4-1.1 1.3v29.1c0 .9.2 1.3 1.1 1.3 4.2 0 14.1 0 19.6-.2 7.7-.2 9.7-.9 11.5-3.5.7-1.3 1.3-1.8 2-1.8.9 0 1.1.9 1.1 1.8 0 1.5-.9 7.7-1.1 12.8-.2 3.1-.2 10.4-.2 11.9 0 2-.4 2.4-1.3 2.4s-1.3-.7-1.5-2.2c-.2-.9-.2-1.8-.2-2.6-.9-4.2-2.4-6.8-9.9-7.3-4.4-.2-15.2-.4-19.6-.4-.9 0-.9.2-.9 1.1v9.9c0 4.6-.2 11 0 16.8.2 9.7 2 11.9 18.1 11.9 3.7 0 9.3-.2 13.2-1.5 4-1.5 5.5-4.9 6.8-11.2.2-1.5.9-2.4 2-2.4s1.3 1.1 1.3 2.9c0 6-1.3 17.2-2 19.8-1.1 3.5-2.2 3.7-7.5 3.7-21.2 0-31.5-.9-46.5-.9-6.6 0-13.5.4-21.6.4-2.6 0-3.3-.9-3.3-1.8 0-.7.4-1.3 2.9-1.3 1.3-.2 2.6-.2 4.2-.4 4.6-.9 5.1-6.2 5.5-15.9 0-5.3.2-12.8.2-20.5v-24.2h-1.1zm90.6 62.1c-2.6-.9-3.1-3.1-3.1-5.5 0-11.9.2-17 .9-21.2.2-2.6 1.1-3.1 2-3.1s1.3.7 1.3 2c.2 1.3.2 2.4.4 3.7 2 11.9 13.5 18.7 25.1 18.7 12.8 0 16.8-6 16.8-11.7 0-5.5-2-9.9-13.9-18.1l-8.8-6c-17-11.7-21.6-21-21.6-33.7.2-15.9 13.9-29.1 37.1-29.1 6.6 0 10.8.2 17.2 1.5 2.2.4 4.9.9 7.1 1.5 1.3.2 1.8.9 1.8 2-.2 5.1-.4 7.5-.4 20.1 0 2.4-.4 3.3-1.5 3.3-.9 0-1.5-.2-2-2.6-.2-1.5-.7-4.6-2.2-7.7-2.9-5.1-10.4-9.9-19.8-9.9-11.9 0-15.7 6.6-15.7 12.6s2.9 10.1 10.8 15l8.2 5.1c20.5 12.8 26.2 20.7 26.2 34.4 0 11-4.9 20.5-15.9 26.5-8.4 4.9-18.3 5.5-25.8 5.5-11.4.7-18.6-.8-24.2-3.3zm92.7-62.1c0-21.4 0-25.1-.4-29.3-.2-3.7-1.3-6.2-4.9-6.6-.9-.2-2.6-.4-4.4-.7-2-.2-2.6-.7-2.6-1.5s.4-1.5 3.1-1.5c5.5 0 20.7.4 21.2.4.9 0 18.7-.4 24-.4 2.6 0 2.9.7 2.9 1.5 0 1.1-1.1 1.3-2.9 1.5-1.3.2-1.5.2-3.1.4-3.7.9-5.1 2.2-5.7 7.1-.4 4.4-.4 7.7-.4 29.1v24c0 10.6.2 23.6.9 29.3.2 3.5 1.3 6 5.5 6.8 2 .4 4.2.4 6 .7 2.4 0 3.1.9 3.1 1.8 0 .7-.7 1.3-3.1 1.3-9.9 0-26.2-.4-26.9-.4-.2 0-16.8.4-21.2.4-2.4 0-3.3-.4-3.3-1.5 0-.9.9-1.5 2.4-1.5 1.3-.2 2.6-.2 4.6-.4 3.1-.7 4.2-3.5 4.6-7.5.9-5.7.9-15.2.9-28.9v-24l-.3-.1zm161.8 50c0 9-.2 9.9-3.1 11-7.1 2.4-21.8 5.1-34.8 5.1-41.2 0-68.4-17.9-68.4-54 0-23.2 12.8-37.5 26-44.8 14.8-8.4 30.9-9 41.5-9 8.2 0 15.7.9 22.5 1.8 5.3.7 9.9 1.5 14.1 1.8 1.3 0 1.8.9 1.3 2.2-.2 1.3-1.8 7.3-1.8 25.8 0 2.2-.7 3.1-1.8 3.1s-1.3-1.3-1.5-2.6c-.2-1.8-.4-3.5-1.3-5.5-1.8-10.6-14.8-17.2-35.5-17.2-11 0-19.4 3.3-24.9 10.1-4.9 6-8.2 15.7-8.2 28.4 0 23.6 10.6 50.5 38.8 50.5 2.9 0 6.8-.2 8.4-2 .9-.7 1.3-1.8 1.3-3.3v-7.1c0-5.3 0-10.6.2-15.9 0-8.6-2-11.5-7.1-12.1-2-.2-3.7-.4-6.2-.7-1.3-.2-2.2-1.1-2.2-2s.9-1.3 3.1-1.3c9.9 0 21.2.2 24.7.2 5.5 0 15-.2 23.6-.2 2 0 3.1.2 3.1 1.3 0 .9-.7 1.3-2.2 1.8-.7 0-2.6.2-3.7.2-3.7.4-5.1 2-5.3 6.6-.7 4.9-.7 11.9-.7 18.5l.1 9.3zm37.1-84.7c.2-4.6.7-7.1 2.6-7.1.9 0 1.3 0 5.3 3.1 6.8 5.3 28.7 24 46.3 39.7 15.7 13.9 23.2 20.1 27.3 23.8l-.9-48.5c-.2-7.7-1.3-11.2-7.5-12.1-1.8-.2-3.5-.4-5.7-.7-2-.2-2.6-.9-2.6-1.5 0-1.1 1.3-1.5 2.6-1.5 5.3 0 15 .4 21.4.4 3.5 0 11-.4 16.8-.4 2.4 0 3.1.7 3.1 1.3s-.2 1.5-2.4 1.8c-1.8.2-2.2.2-3.1.2-4.9.7-6.4 2.6-6.8 11.5-1.3 25.8-1.8 54-2 81.6 0 7.9-.9 9.3-3.1 9.3-2.4 0-7.3-3.5-18.5-12.8-9.9-8.2-21.2-17.9-28-24-7.7-6.8-19.8-17.2-32-28.4l1.3 44.5c.2 9.5.7 13.5 4.9 14.6 2.6.7 4.2.9 7.1.9 2.4.2 3.1.9 3.1 1.5 0 1.1-.9 1.5-3.5 1.5-4 0-8.2-.2-18.3-.4-4 0-15.7.4-20.3.4-2.4 0-3.1-.4-3.1-1.5 0-.9.7-1.3 2.6-1.5 1.3-.2 2.2-.2 4-.2 6-.9 7.1-4 7.7-16.8 1-28.4 1-60.4 1.7-78.7zM54.2 571c0-19.6 0-23.4-.2-27.8-.2-4-.9-7.5-6-7.9-1.1-.2-2.4-.2-5.1-.4-2-.2-2.6-.9-2.6-1.5 0-.9.9-1.1 3.1-1.1 3.3 0 15.7.4 21.6.4 4.4 0 10.4-.2 21.8-.2 22.9.2 40.8 3.1 53.1 15.7 6.8 6.8 12.8 18.1 12.8 34 0 16.3-7.1 29.6-14.8 36.8-6.6 6.6-19 15.9-45.9 15.9-5.3 0-9.9-.2-14.3-.4-5.3-.4-10.8-.9-13.2-.9-3.3 0-6.4 0-10.1.2s-5.5.2-9.3.2c-2.2 0-2.6-.7-2.6-1.3 0-.9 1.1-1.3 2.6-1.3 1.8-.2 2.6-.2 4.2-.4 2.6-.4 4-2.9 4.4-8.2.4-6.4.7-15.9.7-27.6v-24h-.2v-.2zM78 586c0 14.1.2 23.4.2 26 .2 5.5.9 8.2 2.2 9.7 2.4 2.9 7.9 4.9 13.9 4.9 9.5 0 17.2-2 24.5-9.5 7.1-7.1 8.8-19 8.8-31.5 0-12.1-4.4-23.2-10.1-30.7-9.3-12.1-22.1-14.6-30.9-14.6-2.9 0-6 .4-7.3 1.1-1.1.4-1.1 1.1-1.1 2.4.2 4.6-.2 14.1-.2 25.1V586zm99.9-6.6c0-19.4-.2-21.4-.4-25.1-.2-2.9-1.5-4.9-4.2-5.3-1.1-.2-2.4-.2-3.5-.4-1.8-.2-2-.9-2-1.5s.7-1.1 2.6-1.1c7.3 0 12.8.4 17.9.4 2.2 0 33.1-.2 34.8-.2 2.2 0 4.9-.2 6.8-.4.9-.2 1.5-.4 2-.4.7 0 .9.4.9 1.1-.2 1.5-.7 2.9-.9 5.7-.2 2.9-.2 5.3-.7 12.6 0 .9-.4 2-1.3 2-.7 0-1.1-.4-1.3-1.5-.2-1.5-.2-2.6-.7-4.2-.7-2.6-2.2-4.2-7.9-4.9-4.4-.2-14.1-.4-17.9-.4-.7 0-.9.4-.9 1.1v24.5c0 .9.2 1.1.9 1.1 3.5 0 11.9 0 16.5-.2 6.6-.2 8.2-.7 9.7-2.9.4-1.1 1.1-1.5 1.5-1.5.9 0 .9.9.9 1.5 0 1.3-.9 6.4-.9 10.8-.2 2.6-.2 8.8-.2 10.1 0 1.5-.4 2-1.1 2s-1.1-.4-1.3-2c-.2-.7-.2-1.5-.2-2.2-.7-3.5-2-5.7-8.4-6.2-3.7-.2-12.8-.4-16.5-.4-.7 0-.9.2-.9.9v8.4c0 4-.2 9.5 0 14.1.2 8.2 1.5 10.1 15.2 10.1 3.1 0 7.7-.2 11-1.3 3.3-1.3 4.6-4.2 5.7-9.5.2-1.3.9-2 1.5-2 .9 0 1.1.9 1.1 2.4 0 5.1-1.1 14.6-1.8 16.8-.9 2.9-2 3.1-6.4 3.1-17.9 0-26.5-.7-39.3-.7-5.7 0-11.5.4-18.3.4-2.2 0-2.9-.7-2.9-1.5 0-.4.4-1.1 2.4-1.1 1.1-.2 2.2-.2 3.5-.4 4-.7 4.2-5.3 4.6-13.5 0-4.4.2-10.8.2-17.2v-21l.2-.1zm75.6-21.8c-3.5-7.5-4.6-8.2-8.6-8.8 0-.2-2-.2-2.9-.4-1.1-.2-1.5-.9-1.5-1.3 0-.9.9-1.3 2.2-1.3 6.6 0 13.7.4 18.5.4 4.6 0 11.2-.4 21.4-.4 2 0 2.6.4 2.6 1.3 0 .7-.7 1.1-1.8 1.3-1.3.2-1.8.2-2.9.4-3.5.2-4 1.5-4 2.9 0 1.5.4 3.5 2.6 8.6 5.3 13.5 12.8 30 18.1 43 4.9-10.1 14.1-32.2 19.8-45.7 1.3-3.3 1.8-4.9 1.8-5.7 0-1.5-.7-2.2-3.1-2.6-1.5-.2-3.5-.4-4.9-.7-1.8-.2-2.2-.7-2.2-1.3 0-.9.7-1.3 2.6-1.3 8.4 0 14.6.4 16.3.4 2 0 10.1-.4 13.9-.4 2 0 2.6.4 2.6 1.3s-.7 1.1-2.2 1.3-3.3.2-5.1.9c-2.9 1.1-4.4 3.5-7.7 10.1-4.9 9.9-9.5 19.8-16.3 34.6-7.7 16.3-12.8 26.5-16.1 32.6-3.5 6.6-4.9 8.2-6.4 8.2s-2.6-1.5-4.9-7.1l-31.8-70.3zm101.3 21.8c0-19.4-.2-21.4-.4-25.1-.2-2.9-1.5-4.9-4.2-5.3-1.1-.2-2.4-.2-3.5-.4-1.8-.2-2-.9-2-1.5s.7-1.1 2.6-1.1c7.3 0 12.8.4 17.9.4 2.2 0 33.1-.2 34.8-.2 2.2 0 4.9-.2 6.8-.4.9-.2 1.5-.4 2-.4.7 0 .9.4.9 1.1-.2 1.5-.7 2.9-.9 5.7-.2 2.9-.2 5.3-.7 12.6 0 .9-.4 2-1.3 2-.7 0-1.1-.4-1.3-1.5-.2-1.5-.2-2.6-.7-4.2-.7-2.6-2.2-4.2-7.9-4.9-4.4-.2-14.1-.4-17.9-.4-.7 0-.9.4-.9 1.1v24.5c0 .9.2 1.1.9 1.1 3.5 0 11.9 0 16.5-.2 6.6-.2 8.2-.7 9.7-2.9.4-1.1 1.1-1.5 1.5-1.5.9 0 .9.9.9 1.5 0 1.3-.9 6.4-.9 10.8-.2 2.6-.2 8.8-.2 10.1 0 1.5-.4 2-1.1 2s-1.1-.4-1.3-2c-.2-.7-.2-1.5-.2-2.2-.7-3.5-2-5.7-8.4-6.2-3.7-.2-12.8-.4-16.5-.4-.7 0-.9.2-.9.9v8.4c0 4-.2 9.5 0 14.1.2 8.2 1.5 10.1 15.2 10.1 3.1 0 7.7-.2 11-1.3 3.3-1.3 4.6-4.2 5.7-9.5.2-1.3.9-2 1.5-2 .9 0 1.1.9 1.1 2.4 0 5.1-1.1 14.6-1.8 16.8-.9 2.9-2 3.1-6.4 3.1-17.9 0-26.5-.7-39.3-.7-5.7 0-11.5.4-18.3.4-2.2 0-2.9-.7-2.9-1.5 0-.4.4-1.1 2.4-1.1 1.1-.2 2.2-.2 3.5-.4 4-.7 4.2-5.3 4.6-13.5 0-4.4.2-10.8.2-17.2v-21l.2-.1zm104.1 20.5c0 11-.4 19.4 1.5 22.1 1.8 2.4 4 2.9 13.9 2.9 6.6 0 9.9-.2 13.2-1.3 3.3-1.3 6-4.2 7.3-10.6.2-1.3.7-2.4 1.8-2.4.9 0 1.1.9 1.1 2.4 0 2.9-1.8 14.6-2.9 17.9-1.1 3.1-2 3.1-6.4 3.1-18.1 0-29.3-.7-41.9-.7-5.7 0-11.7.4-18.5.4-2 0-2.9-.4-2.9-1.5 0-.4.7-1.1 2.2-1.1 1.1-.2 1.5-.2 2.9-.2 4.9-.9 5.3-2.6 5.7-13.5 0-4.6.2-11 .2-17.4v-20.3c0-19.4-.2-20.7-.4-24.5-.2-3.3-1.3-5.1-4.2-6-1.1-.2-2.6-.4-4.4-.7-1.3-.2-2.4-.4-2.4-1.3s.9-1.3 3.3-1.3c7.3 0 13.2.4 18.3.4.7 0 16.3-.4 20.5-.4 2.2 0 2.6.4 2.6 1.1 0 1.1-1.1 1.5-2.2 1.5-1.3.2-2 .2-3.5.4-3.3.4-4.2 2.6-4.6 6.8-.2 3.7-.4 5.5-.4 25.1v19l.2.1zm47.4-9.9c0-24.3 16.5-46.1 51.8-46.1 30.7 0 49.8 20.5 49.8 43.2 0 27.1-19 47.6-50.5 47.6-35.7.5-51.1-24-51.1-44.7zm75.8 2.9c0-17.6-6.4-40.8-28.2-40.8-10.4 0-22.1 5.3-22.1 32.4 0 21.4 8.6 42.8 28.7 42.8 7.5-.2 21.6-2.9 21.6-34.4zm49.9-13.5c0-11.7 0-21-.4-24.7-.2-2.9-.9-5.1-4.2-5.7-1.8-.2-2.9-.4-4.2-.4-1.5-.2-2.2-.4-2.2-1.1s.2-1.5 2.6-1.5c4.6 0 18.1.4 19.8.4 6 0 12.6-.4 18.1-.4 16.5 0 25.6 3.3 30.7 8.2 2.6 2.6 6.8 7.7 6.8 15.7 0 18.7-18.3 27.8-34.6 27.8-.9 0-3.1-.2-4-.4s-1.3-.7-1.3-1.1c0-.7.4-1.3 2.6-1.3 10.6 0 14.3-7.5 14.3-17.6 0-9-1.8-14.8-5.7-19-2.6-3.3-6.4-4.9-11-4.9-1.5 0-2.2.2-2.6.2-1.1.2-2 .9-2 3.1v43.4c0 8.8.2 19.4.7 24.3.2 3.3 1.3 5.7 4.9 6.4 1.5.4 3.5.4 5.1.4 2 .2 2.4.4 2.4 1.5 0 .4-.7 1.1-2.6 1.1-8.2 0-22.3-.4-22.9-.4-.2 0-14.6.4-18.3.4-2 0-2.6-.4-2.6-1.3s1.1-1.1 2.4-1.3c1.1-.2 2.4-.2 3.5-.2 2.2-.4 3.5-2 4-6.6.7-4.9.9-12.8.9-24v-21h-.2zm184.1 39.1c.9 7.5 2.4 10.4 6.4 11.5 2.2.7 3.5.7 5.5.9 1.8.2 2.2.7 2.2 1.5 0 .9-.4 1.1-2.6 1.1-11.7 0-18.7.2-34.6-.7-2 0-2.4-.9-2.4-1.5 0-.7.4-.9 1.1-1.1 2.2-.9 2.6-1.1 2-7.1l-3.5-39.3-24.5 42.8c-3.3 6-4.2 6.6-5.3 6.6-1.3 0-2-.9-5.7-6.4-5.1-7.7-11-18.5-16.5-27.1-2.2-3.5-6.8-11.9-8.8-14.8l-2.9 29.3c-.4 5.7-.4 7.9-.4 9.7 0 3.5 1.1 5.3 4.2 6 1.5.2 2.6.4 4.2.4 1.5 0 2.2.4 2.2 1.1 0 .9-.4 1.5-2.6 1.5-5.3 0-11.9-.4-15.9-.4-4.2 0-9.7.4-14.6.4-1.1 0-2.4-.2-2.4-1.5 0-.7.4-1.1 2.2-1.1 1.1-.2 2.2-.2 3.5-.2 3.5-.7 5.1-2.6 6.4-11.5l10.6-69.9c.7-4 1.5-5.1 2.6-5.1s2.2 1.1 4.9 5.1l34.8 53.1 33.1-53.8c2.2-3.3 3.3-4.2 4.4-4.2 1.5 0 2 1.5 2.6 4.9l9.8 69.8zm29.8-39.1c0-19.4-.2-21.4-.4-25.1-.2-2.9-1.5-4.9-4.2-5.3-1.1-.2-2.4-.2-3.5-.4-1.8-.2-2-.9-2-1.5s.7-1.1 2.6-1.1c7.3 0 12.8.4 17.9.4 2.2 0 33.1-.2 34.8-.2 2.2 0 4.9-.2 6.8-.4.9-.2 1.5-.4 2-.4.7 0 .9.4.9 1.1-.2 1.5-.7 2.9-.9 5.7-.2 2.9-.2 5.3-.7 12.6 0 .9-.4 2-1.3 2-.7 0-1.1-.4-1.3-1.5-.2-1.5-.2-2.6-.7-4.2-.7-2.6-2.2-4.2-7.9-4.9-4.4-.2-14.1-.4-17.9-.4-.7 0-.9.4-.9 1.1v24.5c0 .9.2 1.1.9 1.1 3.5 0 11.9 0 16.5-.2 6.6-.2 8.2-.7 9.7-2.9.4-1.1 1.1-1.5 1.5-1.5.9 0 .9.9.9 1.5 0 1.3-.9 6.4-.9 10.8-.2 2.6-.2 8.8-.2 10.1 0 1.5-.4 2-1.1 2-.7 0-1.1-.4-1.3-2-.2-.7-.2-1.5-.2-2.2-.7-3.5-2-5.7-8.4-6.2-3.7-.2-12.8-.4-16.5-.4-.7 0-.9.2-.9.9v8.4c0 4-.2 9.5 0 14.1.2 8.2 1.5 10.1 15.2 10.1 3.1 0 7.7-.2 11-1.3 3.3-1.3 4.6-4.2 5.7-9.5.2-1.3.9-2 1.5-2 .9 0 1.1.9 1.1 2.4 0 5.1-1.1 14.6-1.8 16.8-.9 2.9-2 3.1-6.4 3.1-17.9 0-26.5-.7-39.3-.7-5.7 0-11.5.4-18.3.4-2.2 0-2.9-.7-2.9-1.5 0-.4.4-1.1 2.4-1.1 1.1-.2 2.2-.2 3.5-.4 4-.7 4.2-5.3 4.6-13.5 0-4.4.2-10.8.2-17.2v-21l.2-.1zm80.7-29.3c.2-4 .4-6 2.2-6 .7 0 1.1 0 4.6 2.6 5.7 4.6 24.3 20.3 39.3 33.5 13.2 11.7 19.6 17 23.2 20.1l-.7-41c-.2-6.4-1.1-9.5-6.4-10.4-1.5-.2-2.9-.4-4.9-.4-1.5-.2-2.2-.9-2.2-1.3 0-.9 1.1-1.3 2.2-1.3 4.4 0 12.8.4 18.1.4 2.9 0 9.3-.4 14.1-.4 2 0 2.6.4 2.6 1.1 0 .4-.2 1.3-2 1.5-1.5.2-2 .2-2.6.2-4 .4-5.3 2.2-5.7 9.7-1.1 21.8-1.5 45.7-1.5 69 0 6.6-.9 7.9-2.6 7.9-2 0-6.2-2.9-15.7-10.8-8.4-7.1-17.9-15.2-23.6-20.3-6.4-5.7-16.8-14.6-27.1-24l1.1 37.7c.2 7.9.4 11.5 4.2 12.4 2.2.4 3.5.7 6 .9 2 .2 2.6.7 2.6 1.3 0 .9-.9 1.3-2.9 1.3-3.3 0-7.1-.2-15.4-.4-3.3 0-13.2.4-17.2.4-2 0-2.6-.4-2.6-1.3 0-.7.4-1.1 2.2-1.3 1.1-.2 2-.2 3.3-.2 5.1-.7 6-3.3 6.4-14.1.6-24.5.6-51.4 1-66.8zm156.4 49.6c0 8.8.2 19.2.4 24 .2 2.9 1.1 6 4.9 6.4 1.5.2 2.9.4 4.9.4 2.2.2 2.6.9 2.6 1.5s-.7 1.1-2.9 1.1c-8.4 0-21-.4-22.7-.4s-14.6.4-18.3.4c-2 0-2.9-.2-2.9-1.1s1.1-1.3 2.4-1.5c1.1-.2 2.4-.2 4-.4 2.6-.4 3.5-2.9 4-6.2.4-5.1.4-13.2.4-24.5v-44.5c-4.6 0-12.4-.2-18.3.2-6.6.4-8.8 2-10.4 6.6-.2.9-.4 1.8-.9 2.6-.2.9-.7 1.8-1.5 1.8-.9 0-1.1-1.1-1.1-2.4.7-5.7 1.8-11.7 2.6-17 .2-1.8.9-2.6 1.5-2.6s1.5.4 3.5.9c1.8.4 9 .9 13.7.9h53.6c3.5 0 5.7-.2 7.3-.4 2.2-.4 3.3-.7 4-.7 1.3 0 1.1.7 1.1 4 0 1.3-.9 13.5-.9 16.3-.2 2-.9 2.4-1.5 2.4s-1.1-.7-1.3-2c0-1.5-.2-2.2-.2-2.9-.4-3.5-2-6.2-8.2-6.8-4.2-.2-10.8-.9-20.3-.9v44.8h.5z"/><g class="st7"><path class="st8" d="M44 397.7c-2.6-6.8-4.2-10.4-7.9-11.5-2-.7-3.5-.7-5.1-.9-2-.2-2.6-.9-2.6-1.8s1.1-1.3 3.3-1.3c9.9 0 20.7.4 22.9.4 3.7 0 15-.4 23.6-.4 2.2 0 3.3.4 3.3 1.5s-1.1 1.5-2.6 1.5c-1.5.2-2.2.2-4 .7-2 .2-2.9 1.5-2.9 3.5s1.5 7.1 3.7 14.3c1.8 5.7 13.7 42.8 19 56.5l28.7-72.1c1.5-4.2 2.9-5.7 4.4-5.7 2 0 3.1 2.9 5.3 7.5l31.8 70.4c4.6-13.2 12.8-40.4 17.2-56 2-6.6 3.1-11.2 3.1-13.5 0-3.3-1.3-4.6-9.7-5.3-1.3 0-2.6-.7-2.6-1.3 0-.9.2-1.8 3.3-1.8 10.1 0 18.3.4 19.6.4 1.1 0 12.4-.2 17.9-.2 2 0 3.1.2 3.1 1.3 0 .9-.7 1.5-2.6 1.5-1.5.2-2.6.2-5.1.9-4.6.9-7.1 5.5-11 16.8-6.8 19-21.8 61.5-33.5 91.7-2 5.3-3.7 9.7-6.4 9.7-2 0-3.3-2.4-6-7.9l-31.8-68.1c-6.6 16.1-20.7 50.1-28.7 67-2.6 5.7-4.4 9-7.1 9-2 0-3.1-2.4-6-9.9L44 397.7zm187.7 40.4c0-22.9-.2-25.4-.4-29.8-.2-3.5-1.8-5.7-5.1-6.4-1.3-.2-2.9-.2-4.2-.4-2-.2-2.4-.9-2.4-1.8s.9-1.3 3.1-1.3c8.6 0 15.2.4 21.2.4 2.6 0 39-.2 41.2-.2 2.6 0 5.7-.2 8.2-.7.9-.2 1.8-.4 2.2-.4.9 0 1.1.7.9 1.3-.2 1.8-.9 3.5-1.1 6.6-.2 3.5-.2 6.4-.9 15 0 1.1-.7 2.2-1.5 2.2s-1.3-.7-1.5-2c-.2-2-.2-3.1-.9-5.1-.9-3.1-2.6-5.1-9.3-5.7-5.3-.2-16.8-.7-21.2-.7-.9 0-1.1.4-1.1 1.3v29.1c0 .9.2 1.3 1.1 1.3 4.2 0 14.1 0 19.6-.2 7.7-.2 9.7-.9 11.5-3.5.7-1.3 1.3-1.8 2-1.8.9 0 1.1.9 1.1 1.8 0 1.5-.9 7.7-1.1 12.8-.2 3.1-.2 10.4-.2 11.9 0 2-.4 2.4-1.3 2.4s-1.3-.7-1.5-2.2c-.2-.9-.2-1.8-.2-2.6-.9-4.2-2.4-6.8-9.9-7.3-4.4-.2-15.2-.4-19.6-.4-.9 0-.9.2-.9 1.1v9.9c0 4.6-.2 11 0 16.8.2 9.7 2 11.9 18.1 11.9 3.7 0 9.3-.2 13.2-1.5 4-1.5 5.5-4.9 6.8-11.2.2-1.5.9-2.4 2-2.4s1.3 1.1 1.3 2.9c0 6-1.3 17.2-2 19.8-1.1 3.5-2.2 3.7-7.5 3.7-21.2 0-31.5-.9-46.5-.9-6.6 0-13.5.4-21.6.4-2.6 0-3.3-.9-3.3-1.8 0-.7.4-1.3 2.9-1.3 1.3-.2 2.6-.2 4.2-.4 4.6-.9 5.1-6.2 5.5-15.9 0-5.3.2-12.8.2-20.5v-24.2h-1.1zm96.4 0c0-20.1-.2-23.8-.2-28.2-.2-5.7-2.4-7.3-6.6-7.9-1.8-.2-3.3-.2-4.9-.4-2 0-2.6-.9-2.6-1.5 0-1.1 1.3-1.5 2.9-1.5 9 0 15.4.4 23.4.4 10.1 0 19.2-.4 24.7-.4 31.3 0 37.1 13.2 37.1 21.2 0 11-8.2 18.1-17.9 22.5 15.7 4.6 28 13.2 28 30 0 15.4-15.7 30.4-44.3 30.4-4.9 0-24.3-.9-27.6-.9-6.6 0-13.5.4-21.4.4-2.2 0-3.1-.7-3.1-1.5s.4-1.5 2.6-1.5c1.8-.2 2.9-.2 4-.4 3.3-.4 4.9-2 5.3-7.5.9-7.9.9-15.2.9-33.5v-19.7h-.3zm26.2 24.2c0 6.8-.2 15.4.4 22.7.2 3.1.7 4.9 3.1 6.4 2.6 1.5 6.6 2 9.3 2 7.5 0 15.9-4.9 15.9-18.1 0-7.1-1.3-14.1-7.1-19.6-4-4-9.3-5.5-13.5-6-3.7-.2-6.2 0-7.5.2-.4 0-.9.2-.9.9v11.5h.3zm0-23.1c0 1.1.9 1.3 1.5 1.3 2.2.7 6.8.4 8.6.4 2.6 0 7.1-.4 8.8-2 2.9-2.2 4.4-6.6 4.4-12.4 0-11.5-5.7-19.6-16.8-19.6-2.2 0-4.2.2-5.3.7-.7.2-1.3.7-1.3 2.6l.1 29zm134.8-10.9c0-23.4 0-27.8-.2-32.9-.2-4.6-1.1-8.8-7.1-9.5-1.3-.2-2.9-.2-6-.4-2.4-.2-3.1-.9-3.1-1.8s.9-1.3 3.7-1.3c4 0 18.5.4 25.6.4 5.3 0 12.4-.2 25.8-.2 27.1.2 48.5 3.7 62.9 18.5 8.2 8.2 15.2 21.4 15.2 40.4 0 19.2-8.4 34.8-17.4 43.4-7.7 7.9-22.5 19-54.3 19-6.4 0-11.7-.2-17-.7-6.2-.7-12.8-1.1-15.7-1.1-3.7 0-7.7 0-12.1.2s-6.6.2-11 .2c-2.6 0-3.1-.9-3.1-1.5 0-1.1 1.3-1.5 3.1-1.5 2-.2 3.1-.2 4.9-.7 3.1-.4 4.9-3.5 5.3-9.7.4-7.7.9-19 .9-32.6v-28.2h-.4zm28 17.7c0 16.8.2 27.8.2 30.9.2 6.6.9 9.7 2.6 11.5 2.9 3.5 9.3 5.7 16.3 5.7 11 0 20.5-2.4 28.9-11 8.2-8.2 10.4-22.5 10.4-37.3 0-14.6-5.3-27.3-11.9-36.4-11-14.3-26-17.2-36.6-17.2-3.5 0-7.1.4-8.6 1.3-1.3.7-1.3 1.3-1.3 2.9.2 5.3-.2 16.8-.2 29.8V446h.2zm118.4-7.9c0-22.9-.2-25.4-.4-29.8-.2-3.5-1.8-5.7-5.1-6.4-1.3-.2-2.9-.2-4.2-.4-2-.2-2.4-.9-2.4-1.8s.9-1.3 3.1-1.3c8.6 0 15.2.4 21.2.4 2.6 0 39-.2 41.2-.2 2.6 0 5.7-.2 8.2-.7.9-.2 1.8-.4 2.2-.4.9 0 1.1.7.9 1.3-.2 1.8-.9 3.5-1.1 6.6-.2 3.5-.2 6.4-.9 15 0 1.1-.7 2.2-1.5 2.2-.9 0-1.3-.7-1.5-2-.2-2-.2-3.1-.9-5.1-.9-3.1-2.6-5.1-9.3-5.7-5.3-.2-16.8-.7-21.2-.7-.9 0-1.1.4-1.1 1.3v29.1c0 .9.2 1.3 1.1 1.3 4.2 0 14.1 0 19.6-.2 7.7-.2 9.7-.9 11.5-3.5.7-1.3 1.3-1.8 2-1.8.9 0 1.1.9 1.1 1.8 0 1.5-.9 7.7-1.1 12.8-.2 3.1-.2 10.4-.2 11.9 0 2-.4 2.4-1.3 2.4s-1.3-.7-1.5-2.2c-.2-.9-.2-1.8-.2-2.6-.9-4.2-2.4-6.8-9.9-7.3-4.4-.2-15.2-.4-19.6-.4-.9 0-.9.2-.9 1.1v9.9c0 4.6-.2 11 0 16.8.2 9.7 2 11.9 18.1 11.9 3.7 0 9.3-.2 13.2-1.5 4-1.5 5.5-4.9 6.8-11.2.2-1.5.9-2.4 2-2.4s1.3 1.1 1.3 2.9c0 6-1.3 17.2-2 19.8-1.1 3.5-2.2 3.7-7.5 3.7-21.2 0-31.5-.9-46.5-.9-6.6 0-13.5.4-21.6.4-2.6 0-3.3-.9-3.3-1.8 0-.7.4-1.3 2.9-1.3 1.3-.2 2.6-.2 4.2-.4 4.6-.9 5.1-6.2 5.5-15.9 0-5.3.2-12.8.2-20.5v-24.2h-1.1zm90.6 62.1c-2.6-.9-3.1-3.1-3.1-5.5 0-11.9.2-17 .9-21.2.2-2.6 1.1-3.1 2-3.1s1.3.7 1.3 2c.2 1.3.2 2.4.4 3.7 2 11.9 13.5 18.7 25.1 18.7 12.8 0 16.8-6 16.8-11.7 0-5.5-2-9.9-13.9-18.1l-8.8-6c-17-11.7-21.6-21-21.6-33.7.2-15.9 13.9-29.1 37.1-29.1 6.6 0 10.8.2 17.2 1.5 2.2.4 4.9.9 7.1 1.5 1.3.2 1.8.9 1.8 2-.2 5.1-.4 7.5-.4 20.1 0 2.4-.4 3.3-1.5 3.3-.9 0-1.5-.2-2-2.6-.2-1.5-.7-4.6-2.2-7.7-2.9-5.1-10.4-9.9-19.8-9.9-11.9 0-15.7 6.6-15.7 12.6s2.9 10.1 10.8 15l8.2 5.1c20.5 12.8 26.2 20.7 26.2 34.4 0 11-4.9 20.5-15.9 26.5-8.4 4.9-18.3 5.5-25.8 5.5-11.4.7-18.6-.8-24.2-3.3zm92.7-62.1c0-21.4 0-25.1-.4-29.3-.2-3.7-1.3-6.2-4.9-6.6-.9-.2-2.6-.4-4.4-.7-2-.2-2.6-.7-2.6-1.5s.4-1.5 3.1-1.5c5.5 0 20.7.4 21.2.4.9 0 18.7-.4 24-.4 2.6 0 2.9.7 2.9 1.5 0 1.1-1.1 1.3-2.9 1.5-1.3.2-1.5.2-3.1.4-3.7.9-5.1 2.2-5.7 7.1-.4 4.4-.4 7.7-.4 29.1v24c0 10.6.2 23.6.9 29.3.2 3.5 1.3 6 5.5 6.8 2 .4 4.2.4 6 .7 2.4 0 3.1.9 3.1 1.8 0 .7-.7 1.3-3.1 1.3-9.9 0-26.2-.4-26.9-.4-.2 0-16.8.4-21.2.4-2.4 0-3.3-.4-3.3-1.5 0-.9.9-1.5 2.4-1.5 1.3-.2 2.6-.2 4.6-.4 3.1-.7 4.2-3.5 4.6-7.5.9-5.7.9-15.2.9-28.9v-24l-.3-.1zm161.8 50c0 9-.2 9.9-3.1 11-7.1 2.4-21.8 5.1-34.8 5.1-41.2 0-68.4-17.9-68.4-54 0-23.2 12.8-37.5 26-44.8 14.8-8.4 30.9-9 41.5-9 8.2 0 15.7.9 22.5 1.8 5.3.7 9.9 1.5 14.1 1.8 1.3 0 1.8.9 1.3 2.2-.2 1.3-1.8 7.3-1.8 25.8 0 2.2-.7 3.1-1.8 3.1s-1.3-1.3-1.5-2.6c-.2-1.8-.4-3.5-1.3-5.5-1.8-10.6-14.8-17.2-35.5-17.2-11 0-19.4 3.3-24.9 10.1-4.9 6-8.2 15.7-8.2 28.4 0 23.6 10.6 50.5 38.8 50.5 2.9 0 6.8-.2 8.4-2 .9-.7 1.3-1.8 1.3-3.3v-7.1c0-5.3 0-10.6.2-15.9 0-8.6-2-11.5-7.1-12.1-2-.2-3.7-.4-6.2-.7-1.3-.2-2.2-1.1-2.2-2s.9-1.3 3.1-1.3c9.9 0 21.2.2 24.7.2 5.5 0 15-.2 23.6-.2 2 0 3.1.2 3.1 1.3 0 .9-.7 1.3-2.2 1.8-.7 0-2.6.2-3.7.2-3.7.4-5.1 2-5.3 6.6-.7 4.9-.7 11.9-.7 18.5l.1 9.3zm37.1-84.7c.2-4.6.7-7.1 2.6-7.1.9 0 1.3 0 5.3 3.1 6.8 5.3 28.7 24 46.3 39.7 15.7 13.9 23.2 20.1 27.3 23.8l-.9-48.5c-.2-7.7-1.3-11.2-7.5-12.1-1.8-.2-3.5-.4-5.7-.7-2-.2-2.6-.9-2.6-1.5 0-1.1 1.3-1.5 2.6-1.5 5.3 0 15 .4 21.4.4 3.5 0 11-.4 16.8-.4 2.4 0 3.1.7 3.1 1.3s-.2 1.5-2.4 1.8c-1.8.2-2.2.2-3.1.2-4.9.7-6.4 2.6-6.8 11.5-1.3 25.8-1.8 54-2 81.6 0 7.9-.9 9.3-3.1 9.3-2.4 0-7.3-3.5-18.5-12.8-9.9-8.2-21.2-17.9-28-24-7.7-6.8-19.8-17.2-32-28.4l1.3 44.5c.2 9.5.7 13.5 4.9 14.6 2.6.7 4.2.9 7.1.9 2.4.2 3.1.9 3.1 1.5 0 1.1-.9 1.5-3.5 1.5-4 0-8.2-.2-18.3-.4-4 0-15.7.4-20.3.4-2.4 0-3.1-.4-3.1-1.5 0-.9.7-1.3 2.6-1.5 1.3-.2 2.2-.2 4-.2 6-.9 7.1-4 7.7-16.8 1-28.4 1-60.4 1.7-78.7zM54.2 571c0-19.6 0-23.4-.2-27.8-.2-4-.9-7.5-6-7.9-1.1-.2-2.4-.2-5.1-.4-2-.2-2.6-.9-2.6-1.5 0-.9.9-1.1 3.1-1.1 3.3 0 15.7.4 21.6.4 4.4 0 10.4-.2 21.8-.2 22.9.2 40.8 3.1 53.1 15.7 6.8 6.8 12.8 18.1 12.8 34 0 16.3-7.1 29.6-14.8 36.8-6.6 6.6-19 15.9-45.9 15.9-5.3 0-9.9-.2-14.3-.4-5.3-.4-10.8-.9-13.2-.9-3.3 0-6.4 0-10.1.2s-5.5.2-9.3.2c-2.2 0-2.6-.7-2.6-1.3 0-.9 1.1-1.3 2.6-1.3 1.8-.2 2.6-.2 4.2-.4 2.6-.4 4-2.9 4.4-8.2.4-6.4.7-15.9.7-27.6v-24h-.2v-.2zM78 586c0 14.1.2 23.4.2 26 .2 5.5.9 8.2 2.2 9.7 2.4 2.9 7.9 4.9 13.9 4.9 9.5 0 17.2-2 24.5-9.5 7.1-7.1 8.8-19 8.8-31.5 0-12.1-4.4-23.2-10.1-30.7-9.3-12.1-22.1-14.6-30.9-14.6-2.9 0-6 .4-7.3 1.1-1.1.4-1.1 1.1-1.1 2.4.2 4.6-.2 14.1-.2 25.1V586zm99.9-6.6c0-19.4-.2-21.4-.4-25.1-.2-2.9-1.5-4.9-4.2-5.3-1.1-.2-2.4-.2-3.5-.4-1.8-.2-2-.9-2-1.5s.7-1.1 2.6-1.1c7.3 0 12.8.4 17.9.4 2.2 0 33.1-.2 34.8-.2 2.2 0 4.9-.2 6.8-.4.9-.2 1.5-.4 2-.4.7 0 .9.4.9 1.1-.2 1.5-.7 2.9-.9 5.7-.2 2.9-.2 5.3-.7 12.6 0 .9-.4 2-1.3 2-.7 0-1.1-.4-1.3-1.5-.2-1.5-.2-2.6-.7-4.2-.7-2.6-2.2-4.2-7.9-4.9-4.4-.2-14.1-.4-17.9-.4-.7 0-.9.4-.9 1.1v24.5c0 .9.2 1.1.9 1.1 3.5 0 11.9 0 16.5-.2 6.6-.2 8.2-.7 9.7-2.9.4-1.1 1.1-1.5 1.5-1.5.9 0 .9.9.9 1.5 0 1.3-.9 6.4-.9 10.8-.2 2.6-.2 8.8-.2 10.1 0 1.5-.4 2-1.1 2s-1.1-.4-1.3-2c-.2-.7-.2-1.5-.2-2.2-.7-3.5-2-5.7-8.4-6.2-3.7-.2-12.8-.4-16.5-.4-.7 0-.9.2-.9.9v8.4c0 4-.2 9.5 0 14.1.2 8.2 1.5 10.1 15.2 10.1 3.1 0 7.7-.2 11-1.3 3.3-1.3 4.6-4.2 5.7-9.5.2-1.3.9-2 1.5-2 .9 0 1.1.9 1.1 2.4 0 5.1-1.1 14.6-1.8 16.8-.9 2.9-2 3.1-6.4 3.1-17.9 0-26.5-.7-39.3-.7-5.7 0-11.5.4-18.3.4-2.2 0-2.9-.7-2.9-1.5 0-.4.4-1.1 2.4-1.1 1.1-.2 2.2-.2 3.5-.4 4-.7 4.2-5.3 4.6-13.5 0-4.4.2-10.8.2-17.2v-21l.2-.1zm75.6-21.8c-3.5-7.5-4.6-8.2-8.6-8.8 0-.2-2-.2-2.9-.4-1.1-.2-1.5-.9-1.5-1.3 0-.9.9-1.3 2.2-1.3 6.6 0 13.7.4 18.5.4 4.6 0 11.2-.4 21.4-.4 2 0 2.6.4 2.6 1.3 0 .7-.7 1.1-1.8 1.3-1.3.2-1.8.2-2.9.4-3.5.2-4 1.5-4 2.9 0 1.5.4 3.5 2.6 8.6 5.3 13.5 12.8 30 18.1 43 4.9-10.1 14.1-32.2 19.8-45.7 1.3-3.3 1.8-4.9 1.8-5.7 0-1.5-.7-2.2-3.1-2.6-1.5-.2-3.5-.4-4.9-.7-1.8-.2-2.2-.7-2.2-1.3 0-.9.7-1.3 2.6-1.3 8.4 0 14.6.4 16.3.4 2 0 10.1-.4 13.9-.4 2 0 2.6.4 2.6 1.3s-.7 1.1-2.2 1.3-3.3.2-5.1.9c-2.9 1.1-4.4 3.5-7.7 10.1-4.9 9.9-9.5 19.8-16.3 34.6-7.7 16.3-12.8 26.5-16.1 32.6-3.5 6.6-4.9 8.2-6.4 8.2s-2.6-1.5-4.9-7.1l-31.8-70.3zm101.3 21.8c0-19.4-.2-21.4-.4-25.1-.2-2.9-1.5-4.9-4.2-5.3-1.1-.2-2.4-.2-3.5-.4-1.8-.2-2-.9-2-1.5s.7-1.1 2.6-1.1c7.3 0 12.8.4 17.9.4 2.2 0 33.1-.2 34.8-.2 2.2 0 4.9-.2 6.8-.4.9-.2 1.5-.4 2-.4.7 0 .9.4.9 1.1-.2 1.5-.7 2.9-.9 5.7-.2 2.9-.2 5.3-.7 12.6 0 .9-.4 2-1.3 2-.7 0-1.1-.4-1.3-1.5-.2-1.5-.2-2.6-.7-4.2-.7-2.6-2.2-4.2-7.9-4.9-4.4-.2-14.1-.4-17.9-.4-.7 0-.9.4-.9 1.1v24.5c0 .9.2 1.1.9 1.1 3.5 0 11.9 0 16.5-.2 6.6-.2 8.2-.7 9.7-2.9.4-1.1 1.1-1.5 1.5-1.5.9 0 .9.9.9 1.5 0 1.3-.9 6.4-.9 10.8-.2 2.6-.2 8.8-.2 10.1 0 1.5-.4 2-1.1 2s-1.1-.4-1.3-2c-.2-.7-.2-1.5-.2-2.2-.7-3.5-2-5.7-8.4-6.2-3.7-.2-12.8-.4-16.5-.4-.7 0-.9.2-.9.9v8.4c0 4-.2 9.5 0 14.1.2 8.2 1.5 10.1 15.2 10.1 3.1 0 7.7-.2 11-1.3 3.3-1.3 4.6-4.2 5.7-9.5.2-1.3.9-2 1.5-2 .9 0 1.1.9 1.1 2.4 0 5.1-1.1 14.6-1.8 16.8-.9 2.9-2 3.1-6.4 3.1-17.9 0-26.5-.7-39.3-.7-5.7 0-11.5.4-18.3.4-2.2 0-2.9-.7-2.9-1.5 0-.4.4-1.1 2.4-1.1 1.1-.2 2.2-.2 3.5-.4 4-.7 4.2-5.3 4.6-13.5 0-4.4.2-10.8.2-17.2v-21l.2-.1zm104.1 20.5c0 11-.4 19.4 1.5 22.1 1.8 2.4 4 2.9 13.9 2.9 6.6 0 9.9-.2 13.2-1.3 3.3-1.3 6-4.2 7.3-10.6.2-1.3.7-2.4 1.8-2.4.9 0 1.1.9 1.1 2.4 0 2.9-1.8 14.6-2.9 17.9-1.1 3.1-2 3.1-6.4 3.1-18.1 0-29.3-.7-41.9-.7-5.7 0-11.7.4-18.5.4-2 0-2.9-.4-2.9-1.5 0-.4.7-1.1 2.2-1.1 1.1-.2 1.5-.2 2.9-.2 4.9-.9 5.3-2.6 5.7-13.5 0-4.6.2-11 .2-17.4v-20.3c0-19.4-.2-20.7-.4-24.5-.2-3.3-1.3-5.1-4.2-6-1.1-.2-2.6-.4-4.4-.7-1.3-.2-2.4-.4-2.4-1.3s.9-1.3 3.3-1.3c7.3 0 13.2.4 18.3.4.7 0 16.3-.4 20.5-.4 2.2 0 2.6.4 2.6 1.1 0 1.1-1.1 1.5-2.2 1.5-1.3.2-2 .2-3.5.4-3.3.4-4.2 2.6-4.6 6.8-.2 3.7-.4 5.5-.4 25.1v19l.2.1zm47.4-9.9c0-24.3 16.5-46.1 51.8-46.1 30.7 0 49.8 20.5 49.8 43.2 0 27.1-19 47.6-50.5 47.6-35.7.5-51.1-24-51.1-44.7zm75.8 2.9c0-17.6-6.4-40.8-28.2-40.8-10.4 0-22.1 5.3-22.1 32.4 0 21.4 8.6 42.8 28.7 42.8 7.5-.2 21.6-2.9 21.6-34.4zm49.9-13.5c0-11.7 0-21-.4-24.7-.2-2.9-.9-5.1-4.2-5.7-1.8-.2-2.9-.4-4.2-.4-1.5-.2-2.2-.4-2.2-1.1s.2-1.5 2.6-1.5c4.6 0 18.1.4 19.8.4 6 0 12.6-.4 18.1-.4 16.5 0 25.6 3.3 30.7 8.2 2.6 2.6 6.8 7.7 6.8 15.7 0 18.7-18.3 27.8-34.6 27.8-.9 0-3.1-.2-4-.4s-1.3-.7-1.3-1.1c0-.7.4-1.3 2.6-1.3 10.6 0 14.3-7.5 14.3-17.6 0-9-1.8-14.8-5.7-19-2.6-3.3-6.4-4.9-11-4.9-1.5 0-2.2.2-2.6.2-1.1.2-2 .9-2 3.1v43.4c0 8.8.2 19.4.7 24.3.2 3.3 1.3 5.7 4.9 6.4 1.5.4 3.5.4 5.1.4 2 .2 2.4.4 2.4 1.5 0 .4-.7 1.1-2.6 1.1-8.2 0-22.3-.4-22.9-.4-.2 0-14.6.4-18.3.4-2 0-2.6-.4-2.6-1.3s1.1-1.1 2.4-1.3c1.1-.2 2.4-.2 3.5-.2 2.2-.4 3.5-2 4-6.6.7-4.9.9-12.8.9-24v-21h-.2zm184.1 39.1c.9 7.5 2.4 10.4 6.4 11.5 2.2.7 3.5.7 5.5.9 1.8.2 2.2.7 2.2 1.5 0 .9-.4 1.1-2.6 1.1-11.7 0-18.7.2-34.6-.7-2 0-2.4-.9-2.4-1.5 0-.7.4-.9 1.1-1.1 2.2-.9 2.6-1.1 2-7.1l-3.5-39.3-24.5 42.8c-3.3 6-4.2 6.6-5.3 6.6-1.3 0-2-.9-5.7-6.4-5.1-7.7-11-18.5-16.5-27.1-2.2-3.5-6.8-11.9-8.8-14.8l-2.9 29.3c-.4 5.7-.4 7.9-.4 9.7 0 3.5 1.1 5.3 4.2 6 1.5.2 2.6.4 4.2.4 1.5 0 2.2.4 2.2 1.1 0 .9-.4 1.5-2.6 1.5-5.3 0-11.9-.4-15.9-.4-4.2 0-9.7.4-14.6.4-1.1 0-2.4-.2-2.4-1.5 0-.7.4-1.1 2.2-1.1 1.1-.2 2.2-.2 3.5-.2 3.5-.7 5.1-2.6 6.4-11.5l10.6-69.9c.7-4 1.5-5.1 2.6-5.1s2.2 1.1 4.9 5.1l34.8 53.1 33.1-53.8c2.2-3.3 3.3-4.2 4.4-4.2 1.5 0 2 1.5 2.6 4.9l9.8 69.8zm29.8-39.1c0-19.4-.2-21.4-.4-25.1-.2-2.9-1.5-4.9-4.2-5.3-1.1-.2-2.4-.2-3.5-.4-1.8-.2-2-.9-2-1.5s.7-1.1 2.6-1.1c7.3 0 12.8.4 17.9.4 2.2 0 33.1-.2 34.8-.2 2.2 0 4.9-.2 6.8-.4.9-.2 1.5-.4 2-.4.7 0 .9.4.9 1.1-.2 1.5-.7 2.9-.9 5.7-.2 2.9-.2 5.3-.7 12.6 0 .9-.4 2-1.3 2-.7 0-1.1-.4-1.3-1.5-.2-1.5-.2-2.6-.7-4.2-.7-2.6-2.2-4.2-7.9-4.9-4.4-.2-14.1-.4-17.9-.4-.7 0-.9.4-.9 1.1v24.5c0 .9.2 1.1.9 1.1 3.5 0 11.9 0 16.5-.2 6.6-.2 8.2-.7 9.7-2.9.4-1.1 1.1-1.5 1.5-1.5.9 0 .9.9.9 1.5 0 1.3-.9 6.4-.9 10.8-.2 2.6-.2 8.8-.2 10.1 0 1.5-.4 2-1.1 2-.7 0-1.1-.4-1.3-2-.2-.7-.2-1.5-.2-2.2-.7-3.5-2-5.7-8.4-6.2-3.7-.2-12.8-.4-16.5-.4-.7 0-.9.2-.9.9v8.4c0 4-.2 9.5 0 14.1.2 8.2 1.5 10.1 15.2 10.1 3.1 0 7.7-.2 11-1.3 3.3-1.3 4.6-4.2 5.7-9.5.2-1.3.9-2 1.5-2 .9 0 1.1.9 1.1 2.4 0 5.1-1.1 14.6-1.8 16.8-.9 2.9-2 3.1-6.4 3.1-17.9 0-26.5-.7-39.3-.7-5.7 0-11.5.4-18.3.4-2.2 0-2.9-.7-2.9-1.5 0-.4.4-1.1 2.4-1.1 1.1-.2 2.2-.2 3.5-.4 4-.7 4.2-5.3 4.6-13.5 0-4.4.2-10.8.2-17.2v-21l.2-.1zm80.7-29.3c.2-4 .4-6 2.2-6 .7 0 1.1 0 4.6 2.6 5.7 4.6 24.3 20.3 39.3 33.5 13.2 11.7 19.6 17 23.2 20.1l-.7-41c-.2-6.4-1.1-9.5-6.4-10.4-1.5-.2-2.9-.4-4.9-.4-1.5-.2-2.2-.9-2.2-1.3 0-.9 1.1-1.3 2.2-1.3 4.4 0 12.8.4 18.1.4 2.9 0 9.3-.4 14.1-.4 2 0 2.6.4 2.6 1.1 0 .4-.2 1.3-2 1.5-1.5.2-2 .2-2.6.2-4 .4-5.3 2.2-5.7 9.7-1.1 21.8-1.5 45.7-1.5 69 0 6.6-.9 7.9-2.6 7.9-2 0-6.2-2.9-15.7-10.8-8.4-7.1-17.9-15.2-23.6-20.3-6.4-5.7-16.8-14.6-27.1-24l1.1 37.7c.2 7.9.4 11.5 4.2 12.4 2.2.4 3.5.7 6 .9 2 .2 2.6.7 2.6 1.3 0 .9-.9 1.3-2.9 1.3-3.3 0-7.1-.2-15.4-.4-3.3 0-13.2.4-17.2.4-2 0-2.6-.4-2.6-1.3 0-.7.4-1.1 2.2-1.3 1.1-.2 2-.2 3.3-.2 5.1-.7 6-3.3 6.4-14.1.6-24.5.6-51.4 1-66.8zm156.4 49.6c0 8.8.2 19.2.4 24 .2 2.9 1.1 6 4.9 6.4 1.5.2 2.9.4 4.9.4 2.2.2 2.6.9 2.6 1.5s-.7 1.1-2.9 1.1c-8.4 0-21-.4-22.7-.4s-14.6.4-18.3.4c-2 0-2.9-.2-2.9-1.1s1.1-1.3 2.4-1.5c1.1-.2 2.4-.2 4-.4 2.6-.4 3.5-2.9 4-6.2.4-5.1.4-13.2.4-24.5v-44.5c-4.6 0-12.4-.2-18.3.2-6.6.4-8.8 2-10.4 6.6-.2.9-.4 1.8-.9 2.6-.2.9-.7 1.8-1.5 1.8-.9 0-1.1-1.1-1.1-2.4.7-5.7 1.8-11.7 2.6-17 .2-1.8.9-2.6 1.5-2.6s1.5.4 3.5.9c1.8.4 9 .9 13.7.9h53.6c3.5 0 5.7-.2 7.3-.4 2.2-.4 3.3-.7 4-.7 1.3 0 1.1.7 1.1 4 0 1.3-.9 13.5-.9 16.3-.2 2-.9 2.4-1.5 2.4s-1.1-.7-1.3-2c0-1.5-.2-2.2-.2-2.9-.4-3.5-2-6.2-8.2-6.8-4.2-.2-10.8-.9-20.3-.9v44.8h.5z"/></g><path class="st5" d="M212.3 352.3c-4-1.5-5.1-4.6-5.1-9.5 0-19 .7-28 1.3-34.6.4-4.2 1.3-5.7 2.9-5.7 1.5 0 2 2.2 2.2 4 .2 2.4.4 4.4 1.1 7.3 4 19.2 21.6 30.4 39.9 30.4 22.3 0 29.1-11.5 29.1-21.6 0-9.9-2-18.1-21.8-31.8l-14.6-10.1c-28.7-20.3-36.6-36.6-36.6-57.3 0-27.1 22.3-49 60-49 10.1 0 17.2.4 27.1 2.4 3.7.7 7.7 1.5 11.5 2.9 2.4.7 3.1 1.3 3.1 3.3-.4 7.5-.9 12.1-.9 33.1 0 4.2-.7 6-2.6 6-1.1 0-2.2-.7-2.6-4.4-.2-2.4-.9-8.2-4.2-13.7-4.4-7.5-15.2-15.4-32.2-15.4-19.2 0-26.2 10.8-26.2 21.6 0 7.9 2.9 17.2 18.7 28l11.9 7.9c32.9 21.8 43.2 36.4 43.2 60.2 0 16.3-7.3 32.2-24.9 42.6-13.7 8.2-28.7 10.1-41 10.1-17.7-.1-30-2.5-39.3-6.7zm180.4-60.9c0 27.8 3.7 39.3 16.3 47.2 8.2 4.6 14.8 4.9 19.2 4.9 6.2 0 14.8-1.1 21.6-6.6 12.6-9.7 11.9-31.8 11.9-52.5v-24c0-29.8 0-34.4-.4-41-.4-7.7-2.2-11.2-9-12.6-2.6-.4-3.1-.4-7.7-.9-3.1-.2-3.7-1.3-3.7-2.6s1.1-2.2 4.6-2.2c12.6 0 24.9.7 29.3.7 3.7 0 17.6-.7 28.4-.7 3.5 0 4.4.9 4.4 2.4 0 .9-.7 2-3.5 2.4-2.2.2-3.7.2-6.6.9-5.7.9-7.3 3.7-7.7 12.6-.4 6.6-.7 11-.7 41V280c0 23.6-.9 48.5-22.1 64.8-12.8 9.9-29.1 13.5-43.7 13.5-20.5 0-38.6-3.5-50.9-13.7-11.5-9-19.8-23.8-19.8-53.1v-31.1c0-31.8 0-36.8-.4-43.4-.4-5.1-1.5-8.2-6.4-9.5-2.4-.7-7.5-1.1-9.3-1.3-3.3-.4-3.7-1.3-3.7-2.6 0-1.1.9-2.2 5.1-2.2 8.4 0 31.8.7 32.4.7 1.1 0 28.7-.7 36.2-.7 4 0 5.1.9 5.1 2.2s-.7 2.2-3.5 2.6c-2 .2-5.5.4-7.5.9-6 1.1-7.3 5.7-7.7 11.9-.4 6.6-.4 16.5-.4 41.5v31.1h.2v-.2zm150.2-30.9c0-29.8-.2-35.3-.4-41.9-.2-8.4-3.5-10.8-9.7-11.7-2.6-.2-4.9-.4-7.3-.7-2.9 0-3.7-1.3-3.7-2.4 0-1.5 2-2.4 4.2-2.4 13.5 0 22.7.7 34.6.7 15 0 28.4-.7 36.6-.7 46.3 0 54.9 19.8 54.9 31.5 0 16.5-12.1 26.9-26.2 33.3 23.2 6.8 41.5 19.6 41.5 44.5 0 22.7-23.4 45.2-65.7 45.2-7.3 0-35.9-1.1-41-1.1-9.9 0-20.1.7-31.8.7-3.3 0-4.6-.9-4.6-2.4 0-1.1.7-2.4 3.7-2.4 2.6-.2 4.2-.2 6-.7 4.9-.7 7.3-3.1 7.7-11 1.1-11.7 1.3-22.5 1.3-49.6l-.1-28.9zm39 35.7c0 10.1-.2 22.7.7 33.7.2 4.6.9 7.1 4.6 9.5 4 2.4 9.9 3.1 13.9 3.1 11 0 23.6-7.3 23.6-26.9 0-10.4-2-21-10.6-28.9-6-6-13.9-8.2-20.1-8.6-5.5-.2-9.3 0-11 .2-.7 0-1.1.4-1.1 1.3v16.6zm0-34.4c0 1.5 1.1 2.2 2.4 2.2 3.3.9 10.1.7 12.8.7 4 0 10.6-.7 13.2-3.1 4.2-3.3 6.6-9.9 6.6-18.3 0-17-8.4-29.1-24.9-29.1-3.3 0-6.2.2-7.7.9-.9.4-2.2.9-2.2 3.7v43h-.2zm164.3 34.7c0 19.2-.7 34.2 2.6 38.6 3.1 4.2 6.8 4.9 24.5 4.9 11.7 0 17.4-.2 23.4-2.4 6-2.4 10.4-7.3 13-18.5.4-2.4 1.1-4.2 3.1-4.2 1.3 0 2 1.3 2 4.2 0 5.1-3.1 25.6-5.1 31.5-2 5.5-3.3 5.5-11 5.5-31.8 0-51.4-1.1-73.7-1.1-9.9 0-20.5.7-32.4.7-3.3 0-4.9-.7-4.9-2.6 0-.9 1.1-2.2 4-2.2 2.2-.2 2.6-.2 4.9-.4 8.4-1.3 9.5-4.6 10.1-23.6 0-7.9.2-19.2.2-30.7v-35.7c0-34-.2-36.2-.7-42.8-.4-5.7-2.4-9-7.3-10.4-2-.4-4.6-.9-7.7-1.1-2.4-.2-4.2-.7-4.2-2.4s1.5-2.4 6-2.4c12.8 0 23.2.7 32 .7 1.1 0 28.4-.7 35.9-.7 3.7 0 4.6.9 4.6 2.2 0 2-2 2.6-3.7 2.6-2.4.2-3.3.2-6.4.9-6 .9-7.5 4.6-7.9 11.9-.4 6.6-.7 9.7-.7 43.9v33.7l-.6-.1zm102.1-36c0-31.8 0-37.3-.7-43.4-.4-5.5-2-9.3-7.1-9.9-1.3-.4-3.7-.7-6.6-.9-2.9-.2-4-.9-4-2.4 0-1.1.7-2.4 4.6-2.4 8.2 0 30.9.7 31.5.7 1.1 0 27.8-.7 35.7-.7 3.7 0 4.2.9 4.2 2.4s-1.5 2.2-4.2 2.4c-2.2.2-2.4.2-4.6.7-5.7 1.1-7.5 3.3-8.4 10.4-.7 6.6-.7 11.5-.7 43.2v35.7c0 15.4.2 34.8 1.1 43.4.4 5.1 2 8.6 8.2 10.1 2.9.7 6.4.7 8.6.9 3.5 0 4.4 1.3 4.4 2.6 0 .9-.9 2.2-4.4 2.2-14.6 0-38.8-.7-39.9-.7-.4 0-24.9.7-31.5.7-3.5 0-4.9-.7-4.9-2.4 0-1.1 1.1-2.4 3.5-2.4 2-.2 4-.2 6.8-.7 4.4-.9 6.4-5.1 6.8-11 1.1-8.4 1.3-22.5 1.3-42.8l.3-35.7zm273.7 68.6c1.5 13.2 4.2 18.3 11.2 20.3 3.7 1.1 6.2 1.1 9.7 1.3 3.1.4 3.7 1.1 3.7 2.6s-.9 2.2-4.4 2.2c-20.5 0-32.9.2-60.9-1.1-3.5 0-4.2-1.5-4.2-2.6 0-.9.9-1.5 2.2-2.2 4-1.3 4.4-2.2 3.5-12.1l-6.4-68.6-42.8 75c-6 10.6-7.5 11.7-9.3 11.7-2.4 0-3.3-1.5-9.9-11.2-8.6-13.7-19.6-32.4-29.1-47.9-3.7-6.4-11.9-21-15.2-25.8l-5.1 51.6c-.7 10.1-.7 14.1-.7 17.2 0 6.4 2 9.5 7.5 10.6 2.6.4 4.6.7 7.5.9 2.9 0 4 .9 4 2.2 0 1.5-.9 2.6-4.6 2.6-9.3 0-21-.7-27.8-.7-7.3 0-17.2.7-25.4.7-2.2 0-4.2-.4-4.2-2.6 0-1.1.9-2 3.7-2.2 2.2-.2 3.7-.2 6.2-.4 6.2-1.1 9-4.6 11.2-20.3l18.5-122.8c1.1-6.8 2.6-8.6 4.6-8.6s4 2.2 8.4 8.6l61.1 93.1 57.8-94.4c4-5.7 6-7.5 7.7-7.5 2.6 0 3.5 2.9 4.4 8.4l17.1 122zm52.3-68.6c0-34-.2-37.7-.7-44.3-.4-5.1-2.6-8.4-7.5-9.5-2-.4-4.2-.4-6.4-.7-3.1-.2-3.5-1.3-3.5-2.6 0-1.1 1.1-2.2 4.4-2.2 12.8 0 22.5.7 31.5.7 3.7 0 57.8-.2 61.1-.2 4 0 8.4-.2 11.9-.9 1.3-.4 2.6-.7 3.3-.7 1.1 0 1.5.9 1.3 2.2-.4 2.6-1.1 5.1-1.5 9.9-.2 5.1-.4 9.5-1.1 22.1 0 1.5-.9 3.3-2.4 3.3-1.1 0-2.2-.9-2.4-2.9-.4-2.9-.4-4.4-1.1-7.5-1.1-4.6-3.7-7.5-13.9-8.4-7.7-.4-24.9-.9-31.5-.9-1.1 0-1.5.7-1.5 2.2v43c0 1.3.2 2 1.5 2 6.4 0 21 0 29.1-.2 11.5-.4 14.3-1.1 17-5.1.9-2 2-2.6 2.9-2.6 1.3 0 1.5 1.3 1.5 2.6 0 2.4-1.3 11.2-1.5 18.7-.2 4.4-.4 15.2-.4 17.6 0 2.9-.7 3.5-2.2 3.5-1.1 0-2.2-.9-2.4-3.3-.2-1.1-.2-2.6-.4-4-1.1-6.4-3.5-10.1-14.6-10.8-6.6-.4-22.5-.7-29.1-.7-1.1 0-1.3.4-1.3 1.5v14.8c0 6.8-.2 16.5 0 24.7.2 14.3 2.9 17.6 26.9 17.6 5.5 0 13.7-.2 19.6-2.4 6-2.4 8.2-7.3 10.1-16.8.4-2.4 1.3-3.5 2.9-3.5 1.5 0 2 1.5 2 4.2 0 9-2.2 25.4-3.1 29.3-1.5 5.1-3.3 5.5-11 5.5-31.5 0-46.5-1.1-69-1.1-9.9 0-20.1.7-32 .7-4 0-4.9-1.1-4.9-2.6 0-.9.7-2.2 4.2-2.2 2.2-.2 3.7-.2 6.2-.7 6.8-1.1 7.5-9.3 8.2-23.6 0-7.7.2-19 .2-30.4v-35.5h-.4v.2z"/><path class="st6" d="M212.3 352.3c-4-1.5-5.1-4.6-5.1-9.5 0-19 .7-28 1.3-34.6.4-4.2 1.3-5.7 2.9-5.7 1.5 0 2 2.2 2.2 4 .2 2.4.4 4.4 1.1 7.3 4 19.2 21.6 30.4 39.9 30.4 22.3 0 29.1-11.5 29.1-21.6 0-9.9-2-18.1-21.8-31.8l-14.6-10.1c-28.7-20.3-36.6-36.6-36.6-57.3 0-27.1 22.3-49 60-49 10.1 0 17.2.4 27.1 2.4 3.7.7 7.7 1.5 11.5 2.9 2.4.7 3.1 1.3 3.1 3.3-.4 7.5-.9 12.1-.9 33.1 0 4.2-.7 6-2.6 6-1.1 0-2.2-.7-2.6-4.4-.2-2.4-.9-8.2-4.2-13.7-4.4-7.5-15.2-15.4-32.2-15.4-19.2 0-26.2 10.8-26.2 21.6 0 7.9 2.9 17.2 18.7 28l11.9 7.9c32.9 21.8 43.2 36.4 43.2 60.2 0 16.3-7.3 32.2-24.9 42.6-13.7 8.2-28.7 10.1-41 10.1-17.7-.1-30-2.5-39.3-6.7zm180.4-60.9c0 27.8 3.7 39.3 16.3 47.2 8.2 4.6 14.8 4.9 19.2 4.9 6.2 0 14.8-1.1 21.6-6.6 12.6-9.7 11.9-31.8 11.9-52.5v-24c0-29.8 0-34.4-.4-41-.4-7.7-2.2-11.2-9-12.6-2.6-.4-3.1-.4-7.7-.9-3.1-.2-3.7-1.3-3.7-2.6s1.1-2.2 4.6-2.2c12.6 0 24.9.7 29.3.7 3.7 0 17.6-.7 28.4-.7 3.5 0 4.4.9 4.4 2.4 0 .9-.7 2-3.5 2.4-2.2.2-3.7.2-6.6.9-5.7.9-7.3 3.7-7.7 12.6-.4 6.6-.7 11-.7 41V280c0 23.6-.9 48.5-22.1 64.8-12.8 9.9-29.1 13.5-43.7 13.5-20.5 0-38.6-3.5-50.9-13.7-11.5-9-19.8-23.8-19.8-53.1v-31.1c0-31.8 0-36.8-.4-43.4-.4-5.1-1.5-8.2-6.4-9.5-2.4-.7-7.5-1.1-9.3-1.3-3.3-.4-3.7-1.3-3.7-2.6 0-1.1.9-2.2 5.1-2.2 8.4 0 31.8.7 32.4.7 1.1 0 28.7-.7 36.2-.7 4 0 5.1.9 5.1 2.2s-.7 2.2-3.5 2.6c-2 .2-5.5.4-7.5.9-6 1.1-7.3 5.7-7.7 11.9-.4 6.6-.4 16.5-.4 41.5v31.1h.2v-.2zm150.2-30.9c0-29.8-.2-35.3-.4-41.9-.2-8.4-3.5-10.8-9.7-11.7-2.6-.2-4.9-.4-7.3-.7-2.9 0-3.7-1.3-3.7-2.4 0-1.5 2-2.4 4.2-2.4 13.5 0 22.7.7 34.6.7 15 0 28.4-.7 36.6-.7 46.3 0 54.9 19.8 54.9 31.5 0 16.5-12.1 26.9-26.2 33.3 23.2 6.8 41.5 19.6 41.5 44.5 0 22.7-23.4 45.2-65.7 45.2-7.3 0-35.9-1.1-41-1.1-9.9 0-20.1.7-31.8.7-3.3 0-4.6-.9-4.6-2.4 0-1.1.7-2.4 3.7-2.4 2.6-.2 4.2-.2 6-.7 4.9-.7 7.3-3.1 7.7-11 1.1-11.7 1.3-22.5 1.3-49.6l-.1-28.9zm39 35.7c0 10.1-.2 22.7.7 33.7.2 4.6.9 7.1 4.6 9.5 4 2.4 9.9 3.1 13.9 3.1 11 0 23.6-7.3 23.6-26.9 0-10.4-2-21-10.6-28.9-6-6-13.9-8.2-20.1-8.6-5.5-.2-9.3 0-11 .2-.7 0-1.1.4-1.1 1.3v16.6zm0-34.4c0 1.5 1.1 2.2 2.4 2.2 3.3.9 10.1.7 12.8.7 4 0 10.6-.7 13.2-3.1 4.2-3.3 6.6-9.9 6.6-18.3 0-17-8.4-29.1-24.9-29.1-3.3 0-6.2.2-7.7.9-.9.4-2.2.9-2.2 3.7v43h-.2zm164.3 34.7c0 19.2-.7 34.2 2.6 38.6 3.1 4.2 6.8 4.9 24.5 4.9 11.7 0 17.4-.2 23.4-2.4 6-2.4 10.4-7.3 13-18.5.4-2.4 1.1-4.2 3.1-4.2 1.3 0 2 1.3 2 4.2 0 5.1-3.1 25.6-5.1 31.5-2 5.5-3.3 5.5-11 5.5-31.8 0-51.4-1.1-73.7-1.1-9.9 0-20.5.7-32.4.7-3.3 0-4.9-.7-4.9-2.6 0-.9 1.1-2.2 4-2.2 2.2-.2 2.6-.2 4.9-.4 8.4-1.3 9.5-4.6 10.1-23.6 0-7.9.2-19.2.2-30.7v-35.7c0-34-.2-36.2-.7-42.8-.4-5.7-2.4-9-7.3-10.4-2-.4-4.6-.9-7.7-1.1-2.4-.2-4.2-.7-4.2-2.4s1.5-2.4 6-2.4c12.8 0 23.2.7 32 .7 1.1 0 28.4-.7 35.9-.7 3.7 0 4.6.9 4.6 2.2 0 2-2 2.6-3.7 2.6-2.4.2-3.3.2-6.4.9-6 .9-7.5 4.6-7.9 11.9-.4 6.6-.7 9.7-.7 43.9v33.7l-.6-.1zm102.1-36c0-31.8 0-37.3-.7-43.4-.4-5.5-2-9.3-7.1-9.9-1.3-.4-3.7-.7-6.6-.9-2.9-.2-4-.9-4-2.4 0-1.1.7-2.4 4.6-2.4 8.2 0 30.9.7 31.5.7 1.1 0 27.8-.7 35.7-.7 3.7 0 4.2.9 4.2 2.4s-1.5 2.2-4.2 2.4c-2.2.2-2.4.2-4.6.7-5.7 1.1-7.5 3.3-8.4 10.4-.7 6.6-.7 11.5-.7 43.2v35.7c0 15.4.2 34.8 1.1 43.4.4 5.1 2 8.6 8.2 10.1 2.9.7 6.4.7 8.6.9 3.5 0 4.4 1.3 4.4 2.6 0 .9-.9 2.2-4.4 2.2-14.6 0-38.8-.7-39.9-.7-.4 0-24.9.7-31.5.7-3.5 0-4.9-.7-4.9-2.4 0-1.1 1.1-2.4 3.5-2.4 2-.2 4-.2 6.8-.7 4.4-.9 6.4-5.1 6.8-11 1.1-8.4 1.3-22.5 1.3-42.8l.3-35.7zm273.7 68.6c1.5 13.2 4.2 18.3 11.2 20.3 3.7 1.1 6.2 1.1 9.7 1.3 3.1.4 3.7 1.1 3.7 2.6s-.9 2.2-4.4 2.2c-20.5 0-32.9.2-60.9-1.1-3.5 0-4.2-1.5-4.2-2.6 0-.9.9-1.5 2.2-2.2 4-1.3 4.4-2.2 3.5-12.1l-6.4-68.6-42.8 75c-6 10.6-7.5 11.7-9.3 11.7-2.4 0-3.3-1.5-9.9-11.2-8.6-13.7-19.6-32.4-29.1-47.9-3.7-6.4-11.9-21-15.2-25.8l-5.1 51.6c-.7 10.1-.7 14.1-.7 17.2 0 6.4 2 9.5 7.5 10.6 2.6.4 4.6.7 7.5.9 2.9 0 4 .9 4 2.2 0 1.5-.9 2.6-4.6 2.6-9.3 0-21-.7-27.8-.7-7.3 0-17.2.7-25.4.7-2.2 0-4.2-.4-4.2-2.6 0-1.1.9-2 3.7-2.2 2.2-.2 3.7-.2 6.2-.4 6.2-1.1 9-4.6 11.2-20.3l18.5-122.8c1.1-6.8 2.6-8.6 4.6-8.6s4 2.2 8.4 8.6l61.1 93.1 57.8-94.4c4-5.7 6-7.5 7.7-7.5 2.6 0 3.5 2.9 4.4 8.4l17.1 122zm52.3-68.6c0-34-.2-37.7-.7-44.3-.4-5.1-2.6-8.4-7.5-9.5-2-.4-4.2-.4-6.4-.7-3.1-.2-3.5-1.3-3.5-2.6 0-1.1 1.1-2.2 4.4-2.2 12.8 0 22.5.7 31.5.7 3.7 0 57.8-.2 61.1-.2 4 0 8.4-.2 11.9-.9 1.3-.4 2.6-.7 3.3-.7 1.1 0 1.5.9 1.3 2.2-.4 2.6-1.1 5.1-1.5 9.9-.2 5.1-.4 9.5-1.1 22.1 0 1.5-.9 3.3-2.4 3.3-1.1 0-2.2-.9-2.4-2.9-.4-2.9-.4-4.4-1.1-7.5-1.1-4.6-3.7-7.5-13.9-8.4-7.7-.4-24.9-.9-31.5-.9-1.1 0-1.5.7-1.5 2.2v43c0 1.3.2 2 1.5 2 6.4 0 21 0 29.1-.2 11.5-.4 14.3-1.1 17-5.1.9-2 2-2.6 2.9-2.6 1.3 0 1.5 1.3 1.5 2.6 0 2.4-1.3 11.2-1.5 18.7-.2 4.4-.4 15.2-.4 17.6 0 2.9-.7 3.5-2.2 3.5-1.1 0-2.2-.9-2.4-3.3-.2-1.1-.2-2.6-.4-4-1.1-6.4-3.5-10.1-14.6-10.8-6.6-.4-22.5-.7-29.1-.7-1.1 0-1.3.4-1.3 1.5v14.8c0 6.8-.2 16.5 0 24.7.2 14.3 2.9 17.6 26.9 17.6 5.5 0 13.7-.2 19.6-2.4 6-2.4 8.2-7.3 10.1-16.8.4-2.4 1.3-3.5 2.9-3.5 1.5 0 2 1.5 2 4.2 0 9-2.2 25.4-3.1 29.3-1.5 5.1-3.3 5.5-11 5.5-31.5 0-46.5-1.1-69-1.1-9.9 0-20.1.7-32 .7-4 0-4.9-1.1-4.9-2.6 0-.9.7-2.2 4.2-2.2 2.2-.2 3.7-.2 6.2-.7 6.8-1.1 7.5-9.3 8.2-23.6 0-7.7.2-19 .2-30.4v-35.5h-.4v.2z"/><g class="st7"><path class="st8" d="M212.3 352.3c-4-1.5-5.1-4.6-5.1-9.5 0-19 .7-28 1.3-34.6.4-4.2 1.3-5.7 2.9-5.7 1.5 0 2 2.2 2.2 4 .2 2.4.4 4.4 1.1 7.3 4 19.2 21.6 30.4 39.9 30.4 22.3 0 29.1-11.5 29.1-21.6 0-9.9-2-18.1-21.8-31.8l-14.6-10.1c-28.7-20.3-36.6-36.6-36.6-57.3 0-27.1 22.3-49 60-49 10.1 0 17.2.4 27.1 2.4 3.7.7 7.7 1.5 11.5 2.9 2.4.7 3.1 1.3 3.1 3.3-.4 7.5-.9 12.1-.9 33.1 0 4.2-.7 6-2.6 6-1.1 0-2.2-.7-2.6-4.4-.2-2.4-.9-8.2-4.2-13.7-4.4-7.5-15.2-15.4-32.2-15.4-19.2 0-26.2 10.8-26.2 21.6 0 7.9 2.9 17.2 18.7 28l11.9 7.9c32.9 21.8 43.2 36.4 43.2 60.2 0 16.3-7.3 32.2-24.9 42.6-13.7 8.2-28.7 10.1-41 10.1-17.7-.1-30-2.5-39.3-6.7zm180.4-60.9c0 27.8 3.7 39.3 16.3 47.2 8.2 4.6 14.8 4.9 19.2 4.9 6.2 0 14.8-1.1 21.6-6.6 12.6-9.7 11.9-31.8 11.9-52.5v-24c0-29.8 0-34.4-.4-41-.4-7.7-2.2-11.2-9-12.6-2.6-.4-3.1-.4-7.7-.9-3.1-.2-3.7-1.3-3.7-2.6s1.1-2.2 4.6-2.2c12.6 0 24.9.7 29.3.7 3.7 0 17.6-.7 28.4-.7 3.5 0 4.4.9 4.4 2.4 0 .9-.7 2-3.5 2.4-2.2.2-3.7.2-6.6.9-5.7.9-7.3 3.7-7.7 12.6-.4 6.6-.7 11-.7 41V280c0 23.6-.9 48.5-22.1 64.8-12.8 9.9-29.1 13.5-43.7 13.5-20.5 0-38.6-3.5-50.9-13.7-11.5-9-19.8-23.8-19.8-53.1v-31.1c0-31.8 0-36.8-.4-43.4-.4-5.1-1.5-8.2-6.4-9.5-2.4-.7-7.5-1.1-9.3-1.3-3.3-.4-3.7-1.3-3.7-2.6 0-1.1.9-2.2 5.1-2.2 8.4 0 31.8.7 32.4.7 1.1 0 28.7-.7 36.2-.7 4 0 5.1.9 5.1 2.2s-.7 2.2-3.5 2.6c-2 .2-5.5.4-7.5.9-6 1.1-7.3 5.7-7.7 11.9-.4 6.6-.4 16.5-.4 41.5v31.1h.2v-.2zm150.2-30.9c0-29.8-.2-35.3-.4-41.9-.2-8.4-3.5-10.8-9.7-11.7-2.6-.2-4.9-.4-7.3-.7-2.9 0-3.7-1.3-3.7-2.4 0-1.5 2-2.4 4.2-2.4 13.5 0 22.7.7 34.6.7 15 0 28.4-.7 36.6-.7 46.3 0 54.9 19.8 54.9 31.5 0 16.5-12.1 26.9-26.2 33.3 23.2 6.8 41.5 19.6 41.5 44.5 0 22.7-23.4 45.2-65.7 45.2-7.3 0-35.9-1.1-41-1.1-9.9 0-20.1.7-31.8.7-3.3 0-4.6-.9-4.6-2.4 0-1.1.7-2.4 3.7-2.4 2.6-.2 4.2-.2 6-.7 4.9-.7 7.3-3.1 7.7-11 1.1-11.7 1.3-22.5 1.3-49.6l-.1-28.9zm39 35.7c0 10.1-.2 22.7.7 33.7.2 4.6.9 7.1 4.6 9.5 4 2.4 9.9 3.1 13.9 3.1 11 0 23.6-7.3 23.6-26.9 0-10.4-2-21-10.6-28.9-6-6-13.9-8.2-20.1-8.6-5.5-.2-9.3 0-11 .2-.7 0-1.1.4-1.1 1.3v16.6zm0-34.4c0 1.5 1.1 2.2 2.4 2.2 3.3.9 10.1.7 12.8.7 4 0 10.6-.7 13.2-3.1 4.2-3.3 6.6-9.9 6.6-18.3 0-17-8.4-29.1-24.9-29.1-3.3 0-6.2.2-7.7.9-.9.4-2.2.9-2.2 3.7v43h-.2zm164.3 34.7c0 19.2-.7 34.2 2.6 38.6 3.1 4.2 6.8 4.9 24.5 4.9 11.7 0 17.4-.2 23.4-2.4 6-2.4 10.4-7.3 13-18.5.4-2.4 1.1-4.2 3.1-4.2 1.3 0 2 1.3 2 4.2 0 5.1-3.1 25.6-5.1 31.5-2 5.5-3.3 5.5-11 5.5-31.8 0-51.4-1.1-73.7-1.1-9.9 0-20.5.7-32.4.7-3.3 0-4.9-.7-4.9-2.6 0-.9 1.1-2.2 4-2.2 2.2-.2 2.6-.2 4.9-.4 8.4-1.3 9.5-4.6 10.1-23.6 0-7.9.2-19.2.2-30.7v-35.7c0-34-.2-36.2-.7-42.8-.4-5.7-2.4-9-7.3-10.4-2-.4-4.6-.9-7.7-1.1-2.4-.2-4.2-.7-4.2-2.4s1.5-2.4 6-2.4c12.8 0 23.2.7 32 .7 1.1 0 28.4-.7 35.9-.7 3.7 0 4.6.9 4.6 2.2 0 2-2 2.6-3.7 2.6-2.4.2-3.3.2-6.4.9-6 .9-7.5 4.6-7.9 11.9-.4 6.6-.7 9.7-.7 43.9v33.7l-.6-.1zm102.1-36c0-31.8 0-37.3-.7-43.4-.4-5.5-2-9.3-7.1-9.9-1.3-.4-3.7-.7-6.6-.9-2.9-.2-4-.9-4-2.4 0-1.1.7-2.4 4.6-2.4 8.2 0 30.9.7 31.5.7 1.1 0 27.8-.7 35.7-.7 3.7 0 4.2.9 4.2 2.4s-1.5 2.2-4.2 2.4c-2.2.2-2.4.2-4.6.7-5.7 1.1-7.5 3.3-8.4 10.4-.7 6.6-.7 11.5-.7 43.2v35.7c0 15.4.2 34.8 1.1 43.4.4 5.1 2 8.6 8.2 10.1 2.9.7 6.4.7 8.6.9 3.5 0 4.4 1.3 4.4 2.6 0 .9-.9 2.2-4.4 2.2-14.6 0-38.8-.7-39.9-.7-.4 0-24.9.7-31.5.7-3.5 0-4.9-.7-4.9-2.4 0-1.1 1.1-2.4 3.5-2.4 2-.2 4-.2 6.8-.7 4.4-.9 6.4-5.1 6.8-11 1.1-8.4 1.3-22.5 1.3-42.8l.3-35.7zm273.7 68.6c1.5 13.2 4.2 18.3 11.2 20.3 3.7 1.1 6.2 1.1 9.7 1.3 3.1.4 3.7 1.1 3.7 2.6s-.9 2.2-4.4 2.2c-20.5 0-32.9.2-60.9-1.1-3.5 0-4.2-1.5-4.2-2.6 0-.9.9-1.5 2.2-2.2 4-1.3 4.4-2.2 3.5-12.1l-6.4-68.6-42.8 75c-6 10.6-7.5 11.7-9.3 11.7-2.4 0-3.3-1.5-9.9-11.2-8.6-13.7-19.6-32.4-29.1-47.9-3.7-6.4-11.9-21-15.2-25.8l-5.1 51.6c-.7 10.1-.7 14.1-.7 17.2 0 6.4 2 9.5 7.5 10.6 2.6.4 4.6.7 7.5.9 2.9 0 4 .9 4 2.2 0 1.5-.9 2.6-4.6 2.6-9.3 0-21-.7-27.8-.7-7.3 0-17.2.7-25.4.7-2.2 0-4.2-.4-4.2-2.6 0-1.1.9-2 3.7-2.2 2.2-.2 3.7-.2 6.2-.4 6.2-1.1 9-4.6 11.2-20.3l18.5-122.8c1.1-6.8 2.6-8.6 4.6-8.6s4 2.2 8.4 8.6l61.1 93.1 57.8-94.4c4-5.7 6-7.5 7.7-7.5 2.6 0 3.5 2.9 4.4 8.4l17.1 122zm52.3-68.6c0-34-.2-37.7-.7-44.3-.4-5.1-2.6-8.4-7.5-9.5-2-.4-4.2-.4-6.4-.7-3.1-.2-3.5-1.3-3.5-2.6 0-1.1 1.1-2.2 4.4-2.2 12.8 0 22.5.7 31.5.7 3.7 0 57.8-.2 61.1-.2 4 0 8.4-.2 11.9-.9 1.3-.4 2.6-.7 3.3-.7 1.1 0 1.5.9 1.3 2.2-.4 2.6-1.1 5.1-1.5 9.9-.2 5.1-.4 9.5-1.1 22.1 0 1.5-.9 3.3-2.4 3.3-1.1 0-2.2-.9-2.4-2.9-.4-2.9-.4-4.4-1.1-7.5-1.1-4.6-3.7-7.5-13.9-8.4-7.7-.4-24.9-.9-31.5-.9-1.1 0-1.5.7-1.5 2.2v43c0 1.3.2 2 1.5 2 6.4 0 21 0 29.1-.2 11.5-.4 14.3-1.1 17-5.1.9-2 2-2.6 2.9-2.6 1.3 0 1.5 1.3 1.5 2.6 0 2.4-1.3 11.2-1.5 18.7-.2 4.4-.4 15.2-.4 17.6 0 2.9-.7 3.5-2.2 3.5-1.1 0-2.2-.9-2.4-3.3-.2-1.1-.2-2.6-.4-4-1.1-6.4-3.5-10.1-14.6-10.8-6.6-.4-22.5-.7-29.1-.7-1.1 0-1.3.4-1.3 1.5v14.8c0 6.8-.2 16.5 0 24.7.2 14.3 2.9 17.6 26.9 17.6 5.5 0 13.7-.2 19.6-2.4 6-2.4 8.2-7.3 10.1-16.8.4-2.4 1.3-3.5 2.9-3.5 1.5 0 2 1.5 2 4.2 0 9-2.2 25.4-3.1 29.3-1.5 5.1-3.3 5.5-11 5.5-31.5 0-46.5-1.1-69-1.1-9.9 0-20.1.7-32 .7-4 0-4.9-1.1-4.9-2.6 0-.9.7-2.2 4.2-2.2 2.2-.2 3.7-.2 6.2-.7 6.8-1.1 7.5-9.3 8.2-23.6 0-7.7.2-19 .2-30.4v-35.5h-.4v.2z"/></g><path class="st5" d="M207.2 50.6c.2-5.5.7-8.4 3.3-8.4.9 0 1.8 0 6.4 3.5 8.2 6.4 34.4 28.9 55.6 47.6 18.7 16.5 27.8 24.3 32.6 28.4l-.9-58.2c-.4-9-1.5-13.5-9-14.6-2-.4-4.2-.7-6.8-.7-2.2-.2-3.1-1.1-3.1-2 0-1.3 1.5-2 3.3-2 6.2 0 18.1.7 25.8.7 4.2 0 13.2-.7 20.1-.7 2.9 0 3.5.7 3.5 1.8 0 .7-.4 2-2.9 2-2 .2-2.6.2-3.7.4-5.7.7-7.7 3.3-8.2 13.7-1.5 31.1-2 64.6-2.2 97.9 0 9.5-1.1 11.2-3.5 11.2-2.9 0-8.8-4.2-22.3-15.2-11.9-9.9-25.4-21.6-33.5-28.9-9-8.2-23.8-20.7-38.4-34.2l1.8 53.6c.4 11.5.7 16.1 6 17.4 3.3.7 5.1.9 8.6 1.1 2.9.4 3.5.9 3.5 2 0 1.3-1.1 2-4.2 2-4.9 0-9.9-.4-21.8-.7-4.9 0-18.7.7-24.3.7-2.9 0-3.7-.7-3.7-2 0-.9.7-1.8 3.1-2 1.8-.2 2.6-.2 4.9-.4 7.1-.9 8.6-4.9 9-20.1.4-33.7.4-71.9 1-93.9zm-22.3 114.6c-1.8-.2-4-.2-6.2-.7-6.6-.9-10.8-5.5-17.4-20.3-4.4-9.7-10.8-24.3-17.6-39.9 2.6-2 5.3-4.2 7.5-6.4 2.6-2.6 4.9-5.5 6.8-8.2 2-2.9 3.5-5.7 4.6-8.4.7-1.3 1.1-2.6 1.5-4 .2-1.3.7-2.4.9-3.7.2-1.1.4-2.2.4-3.3.2-1.1.2-2 .2-2.9.2-1.8 0-3.1 0-4v-1.3s0 .4-.2 1.3-.2 2.2-.7 3.7c-.2.9-.2 1.8-.7 2.6-.2.9-.7 2-.9 3.1-.4 1.1-.9 2.2-1.3 3.3-.7 1.1-1.1 2.4-2 3.5-1.5 2.4-3.1 4.9-5.3 7.1s-4.6 4.6-7.3 6.6c-2 1.5-4.2 2.9-6.6 4.2-12.8-29.1-26.2-59.5-29.3-66.2-3.1-6.8-4.9-9.5-6.6-9.5-2 0-4.2 2.9-7.7 11L46.4 148c-4 9-7.7 15-14.6 16.3-2 .4-3.7.7-6.2.7-2.2 0-3.5.4-3.5 2 0 1.1 1.1 2 3.7 2 9.5 0 22.1-.7 24.3-.7 10.1 0 16.5.7 25.1.7 2.4 0 4-.4 4-2 0-.9-.7-2-3.5-2-1.5-.2-4.6-.4-6.6-.7-4-.4-5.7-2-5.7-5.7 0-2.2 1.1-7.3 3.1-12.1l6-15.7.7-1.5h.4c.4 0 1.1 0 1.5-.2.7 0 1.5-.2 2.4-.2 1.8-.2 4-.4 6.4-.9 2.4-.4 5.1-.9 8.2-1.5 6.8-1.5 14.8-3.7 22.9-6.8l4.4 11 12.4 30.4c.7 1.8-.2 3.1-2.2 3.5-1.8.4-2.6 1.1-2.6 2.2s1.1 1.8 4.2 1.8c12.1.2 34 .7 52.5.7 3.5 0 4.9-.7 4.9-2-.1-1.2-1.2-2.1-3.7-2.1zm-95.2-53.3c-2.6.2-5.3.2-7.3.2h-2.6l15.4-39.5c.4-.9.7-1.3 1.3 0l14.3 36.2c-7.9 1.8-15.2 2.9-21.1 3.1z"/><path class="st6" d="M207.2 50.6c.2-5.5.7-8.4 3.3-8.4.9 0 1.8 0 6.4 3.5 8.2 6.4 34.4 28.9 55.6 47.6 18.7 16.5 27.8 24.3 32.6 28.4l-.9-58.2c-.4-9-1.5-13.5-9-14.6-2-.4-4.2-.7-6.8-.7-2.2-.2-3.1-1.1-3.1-2 0-1.3 1.5-2 3.3-2 6.2 0 18.1.7 25.8.7 4.2 0 13.2-.7 20.1-.7 2.9 0 3.5.7 3.5 1.8 0 .7-.4 2-2.9 2-2 .2-2.6.2-3.7.4-5.7.7-7.7 3.3-8.2 13.7-1.5 31.1-2 64.6-2.2 97.9 0 9.5-1.1 11.2-3.5 11.2-2.9 0-8.8-4.2-22.3-15.2-11.9-9.9-25.4-21.6-33.5-28.9-9-8.2-23.8-20.7-38.4-34.2l1.8 53.6c.4 11.5.7 16.1 6 17.4 3.3.7 5.1.9 8.6 1.1 2.9.4 3.5.9 3.5 2 0 1.3-1.1 2-4.2 2-4.9 0-9.9-.4-21.8-.7-4.9 0-18.7.7-24.3.7-2.9 0-3.7-.7-3.7-2 0-.9.7-1.8 3.1-2 1.8-.2 2.6-.2 4.9-.4 7.1-.9 8.6-4.9 9-20.1.4-33.7.4-71.9 1-93.9zm-22.3 114.6c-1.8-.2-4-.2-6.2-.7-6.6-.9-10.8-5.5-17.4-20.3-4.4-9.7-10.8-24.3-17.6-39.9 2.6-2 5.3-4.2 7.5-6.4 2.6-2.6 4.9-5.5 6.8-8.2 2-2.9 3.5-5.7 4.6-8.4.7-1.3 1.1-2.6 1.5-4 .2-1.3.7-2.4.9-3.7.2-1.1.4-2.2.4-3.3.2-1.1.2-2 .2-2.9.2-1.8 0-3.1 0-4v-1.3s0 .4-.2 1.3-.2 2.2-.7 3.7c-.2.9-.2 1.8-.7 2.6-.2.9-.7 2-.9 3.1-.4 1.1-.9 2.2-1.3 3.3-.7 1.1-1.1 2.4-2 3.5-1.5 2.4-3.1 4.9-5.3 7.1s-4.6 4.6-7.3 6.6c-2 1.5-4.2 2.9-6.6 4.2-12.8-29.1-26.2-59.5-29.3-66.2-3.1-6.8-4.9-9.5-6.6-9.5-2 0-4.2 2.9-7.7 11L46.4 148c-4 9-7.7 15-14.6 16.3-2 .4-3.7.7-6.2.7-2.2 0-3.5.4-3.5 2 0 1.1 1.1 2 3.7 2 9.5 0 22.1-.7 24.3-.7 10.1 0 16.5.7 25.1.7 2.4 0 4-.4 4-2 0-.9-.7-2-3.5-2-1.5-.2-4.6-.4-6.6-.7-4-.4-5.7-2-5.7-5.7 0-2.2 1.1-7.3 3.1-12.1l6-15.7.7-1.5h.4c.4 0 1.1 0 1.5-.2.7 0 1.5-.2 2.4-.2 1.8-.2 4-.4 6.4-.9 2.4-.4 5.1-.9 8.2-1.5 6.8-1.5 14.8-3.7 22.9-6.8l4.4 11 12.4 30.4c.7 1.8-.2 3.1-2.2 3.5-1.8.4-2.6 1.1-2.6 2.2s1.1 1.8 4.2 1.8c12.1.2 34 .7 52.5.7 3.5 0 4.9-.7 4.9-2-.1-1.2-1.2-2.1-3.7-2.1zm-95.2-53.3c-2.6.2-5.3.2-7.3.2h-2.6l15.4-39.5c.4-.9.7-1.3 1.3 0l14.3 36.2c-7.9 1.8-15.2 2.9-21.1 3.1z"/><g class="st7"><path class="st8" d="M207.2 50.6c.2-5.5.7-8.4 3.3-8.4.9 0 1.8 0 6.4 3.5 8.2 6.4 34.4 28.9 55.6 47.6 18.7 16.5 27.8 24.3 32.6 28.4l-.9-58.2c-.4-9-1.5-13.5-9-14.6-2-.4-4.2-.7-6.8-.7-2.2-.2-3.1-1.1-3.1-2 0-1.3 1.5-2 3.3-2 6.2 0 18.1.7 25.8.7 4.2 0 13.2-.7 20.1-.7 2.9 0 3.5.7 3.5 1.8 0 .7-.4 2-2.9 2-2 .2-2.6.2-3.7.4-5.7.7-7.7 3.3-8.2 13.7-1.5 31.1-2 64.6-2.2 97.9 0 9.5-1.1 11.2-3.5 11.2-2.9 0-8.8-4.2-22.3-15.2-11.9-9.9-25.4-21.6-33.5-28.9-9-8.2-23.8-20.7-38.4-34.2l1.8 53.6c.4 11.5.7 16.1 6 17.4 3.3.7 5.1.9 8.6 1.1 2.9.4 3.5.9 3.5 2 0 1.3-1.1 2-4.2 2-4.9 0-9.9-.4-21.8-.7-4.9 0-18.7.7-24.3.7-2.9 0-3.7-.7-3.7-2 0-.9.7-1.8 3.1-2 1.8-.2 2.6-.2 4.9-.4 7.1-.9 8.6-4.9 9-20.1.4-33.7.4-71.9 1-93.9zm-22.3 114.6c-1.8-.2-4-.2-6.2-.7-6.6-.9-10.8-5.5-17.4-20.3-4.4-9.7-10.8-24.3-17.6-39.9 2.6-2 5.3-4.2 7.5-6.4 2.6-2.6 4.9-5.5 6.8-8.2 2-2.9 3.5-5.7 4.6-8.4.7-1.3 1.1-2.6 1.5-4 .2-1.3.7-2.4.9-3.7.2-1.1.4-2.2.4-3.3.2-1.1.2-2 .2-2.9.2-1.8 0-3.1 0-4v-1.3s0 .4-.2 1.3-.2 2.2-.7 3.7c-.2.9-.2 1.8-.7 2.6-.2.9-.7 2-.9 3.1-.4 1.1-.9 2.2-1.3 3.3-.7 1.1-1.1 2.4-2 3.5-1.5 2.4-3.1 4.9-5.3 7.1s-4.6 4.6-7.3 6.6c-2 1.5-4.2 2.9-6.6 4.2-12.8-29.1-26.2-59.5-29.3-66.2-3.1-6.8-4.9-9.5-6.6-9.5-2 0-4.2 2.9-7.7 11L46.4 148c-4 9-7.7 15-14.6 16.3-2 .4-3.7.7-6.2.7-2.2 0-3.5.4-3.5 2 0 1.1 1.1 2 3.7 2 9.5 0 22.1-.7 24.3-.7 10.1 0 16.5.7 25.1.7 2.4 0 4-.4 4-2 0-.9-.7-2-3.5-2-1.5-.2-4.6-.4-6.6-.7-4-.4-5.7-2-5.7-5.7 0-2.2 1.1-7.3 3.1-12.1l6-15.7.7-1.5h.4c.4 0 1.1 0 1.5-.2.7 0 1.5-.2 2.4-.2 1.8-.2 4-.4 6.4-.9 2.4-.4 5.1-.9 8.2-1.5 6.8-1.5 14.8-3.7 22.9-6.8l4.4 11 12.4 30.4c.7 1.8-.2 3.1-2.2 3.5-1.8.4-2.6 1.1-2.6 2.2s1.1 1.8 4.2 1.8c12.1.2 34 .7 52.5.7 3.5 0 4.9-.7 4.9-2-.1-1.2-1.2-2.1-3.7-2.1zm-95.2-53.3c-2.6.2-5.3.2-7.3.2h-2.6l15.4-39.5c.4-.9.7-1.3 1.3 0l14.3 36.2c-7.9 1.8-15.2 2.9-21.1 3.1z"/></g><linearGradient id="SVGID_2_" gradientUnits="userSpaceOnUse" x1="35.323" y1="282.921" x2="152.4" y2="282.921"><stop offset="0" stop-color="#0071bc" stop-opacity=".3"/><stop offset="1" stop-color="#e0e0e0"/></linearGradient><path d="M151.9 246.2c0 9.9-7.5 19.8-22.3 30.2l-4.9 6.8c-32.2 32.2-57.6 48.1-75.9 46.8-9.9-.4-13.9-5.5-12.8-14.8 1.5-11 9-23.8 22.7-38.2 25.8-27.3 50.5-40.8 74.8-41.2 12.4-.4 18.4 3.1 18.4 10.4zm-40.6 41.2c-9 4.4-17.4 6.8-24.9 6.8-9 0-12.8-4.4-11-13l-4.4 4.9C59.1 300.9 53.1 311 53.1 317c0 2 .4 3.1 1.5 4.4 1.5 2.4 4.4 3.1 7.9 2.4l11-5.1c17-9 33.7-21.8 49.6-37.7-5 2.9-8.9 5.3-11.8 6.4zm35.5-38.6c0-4-2-6.4-6.4-7.5-3.1-1.1-6.8-1.1-10.4 0-12.8 3.5-24.7 10.4-36.2 20.3-6.4 6-11 10.8-14.3 14.3-1.1 2.9-1.5 5.1-1.5 7.1 0 5.1 3.1 7.9 9.9 7.9 14.3 0 30.7-8.4 49.2-25.4 6.4-8.3 9.7-13.8 9.7-16.7z" fill="#0071bc" stroke="url(#SVGID_2_)" stroke-miterlimit="10"/><linearGradient id="SVGID_3_" gradientUnits="userSpaceOnUse" x1="10" y1="272.488" x2="335.752" y2="272.488"><stop offset="0" stop-color="#0071bc" stop-opacity=".3"/><stop offset="1" stop-color="#e0e0e0"/></linearGradient><path d="M24.8 426.4c-9.4.4-14.3-5.5-14.3-17.9 0-9 4.4-20.7 13.5-35.3 1.1-2 2-2.4 2.9-2 .4.4.4 1.5-.9 3.5-9.5 15.1-13.5 26.7-12 34.2.9 3.5 2.9 5.1 5.5 5.1 4-.4 12.8-6.4 25.8-18.7 8.8-8.4 21-21.8 36.8-41.2 1.1-2 19-22.9 53.6-64l41.7-48.7 9.5-11h-11.4l4-4.9H191l35.3-40.6c6-7.5 13.5-16.3 21.8-26.2 12.8-13.9 26.7-24.9 41.2-33.7 7.5-4.4 16.3-6.8 26.2-6.4 9 0 15.4 2.9 18.7 7.9 1.1 2 1.5 3.1.4 3.5-.4-.4-1.1-.9-2-2-3.1-5.1-8.8-7.5-16.8-7.5-4.4 0-8.4.9-12.4 2.4-12.4 5.1-26.2 17.4-41.2 36.8l-34 43.4c-2 2.4-8.4 9.9-19.4 22.3h23.4l-4 4.9h-23.4l-15.4 18.3-43.7 50.7-18.7 21.8c19-4.9 34.2-11.9 44.8-21 .4 1.1.9 2.4 1.5 3.1-11.5 9.9-28.2 17.9-50.5 22.9l-30.7 36.2c-20.3 24.3-37.3 42.8-51.2 55.6-5.5 5.4-11 8-16.1 8.5z" fill="#0071bc" stroke="url(#SVGID_3_)" stroke-miterlimit="10"/><linearGradient id="SVGID_4_" gradientUnits="userSpaceOnUse" x1="387.4" y1="95.9" x2="554.8" y2="95.9"><stop offset="0" stop-color="#0071bc" stop-opacity=".3"/><stop offset="1" stop-color="#e0e0e0"/></linearGradient><path d="M462.4 72.8c-.7-1.3-.9-.9-1.3 0l-22.8 58.3-6 15.7c-2 4.9-3.1 9.9-3.1 12.1 0 3.5 1.8 5.3 5.7 5.7 2 .4 5.1.7 6.6.7 2.9 0 3.5.9 3.5 2 0 1.5-1.5 2-4 2-8.6 0-15-.7-25.1-.7-2 0-14.6.7-24.3.7-2.6 0-3.7-.7-3.7-2 0-1.5 1.3-2 3.5-2 2.2-.2 4.2-.4 6.2-.7 6.6-1.3 10.4-7.3 14.6-16.3l50.7-114.9c3.5-8.2 5.7-11 7.7-11s3.5 2.6 6.8 9.5c4.9 10.6 36.8 83.6 49.8 112.5 6.4 14.8 10.6 19.4 17.4 20.3 2 .7 4.4.7 6.2.7 2.4 0 3.5.7 3.5 2s-1.3 2-4.9 2c-18.7 0-40.4-.4-52.5-.7-3.1 0-4.2-.7-4.2-1.8s.9-2 2.6-2.2c2-.4 2.9-1.8 2.2-3.5L484.7 131l-22.3-58.2z" fill="#0071bc" stroke="url(#SVGID_4_)" stroke-miterlimit="10"/><linearGradient id="SVGID_5_" gradientUnits="userSpaceOnUse" x1="984.3" y1="105.95" x2="1129" y2="105.95"><stop offset="0" stop-color="#0071bc" stop-opacity=".3"/><stop offset="1" stop-color="#e0e0e0"/></linearGradient><path d="M1048.6 86.1c-.4-1.1-.9-.9-1.1 0l-19.4 50.1-5.1 13.5c-1.5 4.2-2.6 8.6-2.6 10.6 0 3.1 1.5 4.6 4.9 4.9 1.8.2 4.4.4 5.7.7 2.4 0 2.9.9 2.9 1.5 0 1.3-1.3 1.5-3.5 1.5-7.3 0-13-.4-21.6-.4-1.8 0-12.6.4-20.7.4-2.2 0-3.3-.7-3.3-1.5 0-1.3 1.1-1.5 3.1-1.5 2-.2 3.5-.2 5.3-.7 5.7-1.1 9-6.2 12.4-14.1l43.9-98.8c3.1-7.1 4.9-9.5 6.6-9.5 1.5 0 3.1 2.2 6 8.2 4.2 9.3 31.8 71.9 43 96.8 5.5 12.8 9.3 16.8 15 17.6 1.8.4 3.7.4 5.3.7 2.2 0 3.1.7 3.1 1.5 0 1.1-1.1 1.5-4.2 1.5-16.1 0-34.8-.2-45.2-.4-2.6 0-3.5-.4-3.5-1.5s.9-1.5 2.2-2c1.8-.2 2.4-1.5 2-2.9l-11-26-20.2-50.2z" fill="#0071bc" stroke="url(#SVGID_5_)" stroke-miterlimit="10"/><linearGradient id="SVGID_6_" gradientUnits="userSpaceOnUse" x1="678.616" y1="105.35" x2="803.706" y2="105.35"><stop offset="0" stop-color="#0071bc" stop-opacity=".3"/><stop offset="1" stop-color="#e0e0e0"/></linearGradient><path d="M757.2 121.1c0 12.6.2 27.1.7 34.2.4 4.2 1.8 8.4 6.8 9 2.2.4 4 .7 6.8.7 3.1.4 3.7 1.1 3.7 2.2 0 .9-.9 1.5-4 1.5-11.9 0-29.8-.7-32.2-.7s-20.7.7-25.8.7c-2.9 0-4-.4-4-1.8 0-1.3 1.5-2 3.5-2 1.8-.2 3.5-.2 5.5-.7 3.7-.7 4.9-4 5.5-8.8.7-7.1.7-18.7.7-34.8V57.5c-6.4 0-17.4-.2-25.8.4-9.3.7-12.6 2.9-14.6 9.5-.4 1.1-.7 2.4-1.3 3.5-.4 1.1-.9 2.4-2 2.4-1.3 0-1.8-1.5-1.5-3.5.9-7.9 2.4-16.5 3.7-24.3.4-2.4 1.3-3.5 2.2-3.5s2.2.7 4.9 1.1c2.4.7 13 1.3 19.4 1.3h76.1c4.9 0 7.9-.4 10.4-.7 3.3-.7 4.6-.9 5.5-.9 2 0 1.8.9 1.8 5.7 0 2-1.1 19-1.3 22.9-.2 2.6-1.1 3.5-2.2 3.5s-1.8-.9-2-2.9c0-2-.2-3.1-.2-4-.7-5.1-2.6-8.8-11.7-9.7-6.2-.4-15.2-1.1-28.9-1.1v63.9h.3z" fill="#0071bc" stroke="url(#SVGID_6_)" stroke-miterlimit="10"/><linearGradient id="SVGID_7_" gradientUnits="userSpaceOnUse" x1="817.2" y1="106.95" x2="883.7" y2="106.95"><stop offset="0" stop-color="#0071bc" stop-opacity=".3"/><stop offset="1" stop-color="#e0e0e0"/></linearGradient><path d="M833.1 92.3c0-25.8 0-30-.7-35.3-.4-4.4-1.5-7.5-5.7-7.9-1.1-.4-3.1-.7-5.3-.7s-3.3-.7-3.3-2c0-.9.7-2 3.7-2 6.6 0 24.9.7 25.6.7.9 0 22.5-.7 28.9-.7 3.1 0 3.5.7 3.5 2s-1.3 1.8-3.5 2c-1.8.2-2 .2-3.7.7-4.6.9-6.2 2.6-6.8 8.4-.7 5.3-.7 9.3-.7 35.1v28.9c0 12.6.2 28.2.9 35.3.4 4.2 1.5 7.1 6.6 8.2 2.2.7 5.1.7 7.1.7 2.9 0 3.5 1.1 3.5 2 0 .7-.7 1.8-3.5 1.8-11.9 0-31.3-.7-32.4-.7-.4 0-20.1.7-25.6.7-2.9 0-4-.7-4-2 0-.9.9-2 2.9-2 1.5-.2 3.3-.2 5.5-.7 3.5-.7 5.1-4.2 5.5-9 .9-6.8 1.1-18.3 1.1-34.6V92.5h.4v-.2z" fill="#0071bc" stroke="url(#SVGID_7_)" stroke-miterlimit="10"/><linearGradient id="SVGID_8_" gradientUnits="userSpaceOnUse" x1="901.2" y1="106.8" x2="984.7" y2="106.8"><stop offset="0" stop-color="#0071bc" stop-opacity=".3"/><stop offset="1" stop-color="#e0e0e0"/></linearGradient><path d="M905.4 166.6c-3.1-1.1-3.7-3.5-3.7-6.6 0-14.3.4-20.3.9-25.6.4-3.1 1.3-3.5 2.2-3.5s1.5.7 1.8 2.4c.2 1.5.2 2.9.7 4.4 2.2 14.3 16.1 22.5 30 22.5 15.4 0 20.3-7.3 20.3-13.9s-2.2-11.9-16.8-21.6l-10.4-7.1c-20.3-14.1-25.8-25.1-25.8-40.4.2-19 16.8-35.1 44.3-35.1 7.7 0 13 .4 20.7 2 2.6.7 5.7 1.1 8.6 2 1.8.4 2 .9 2 2.4-.2 6.2-.7 9-.7 24.3 0 2.9-.7 4-2 4-.9 0-2-.4-2.2-3.3-.2-2-.7-5.5-2.6-9-3.5-6.2-12.4-11.9-23.8-11.9-14.3 0-18.7 7.9-18.7 15 0 7.3 3.5 12.1 13 18.1l9.7 6.2c24.5 15.4 31.3 24.7 31.3 41.2 0 13.2-6 24.5-19 31.8-10.1 5.7-21.8 6.6-30.9 6.6-13.4-.1-22.2-2.1-28.9-4.9z" fill="#0071bc" stroke="url(#SVGID_8_)" stroke-miterlimit="10"/><linearGradient id="SVGID_9_" gradientUnits="userSpaceOnUse" x1="1135.3" y1="106.7" x2="1285.1" y2="106.7"><stop offset="0" stop-color="#0071bc" stop-opacity=".3"/><stop offset="1" stop-color="#e0e0e0"/></linearGradient><path d="M1153.8 50.6c.2-5.5.7-8.4 3.3-8.4.9 0 1.8 0 6.4 3.5 8.2 6.4 34.4 28.9 55.6 47.6 18.7 16.5 27.8 24.3 32.6 28.4l-.9-58.2c-.4-9-1.5-13.5-9-14.6-2-.4-4.2-.7-6.8-.7-2.2-.2-3.1-1.1-3.1-2 0-1.3 1.5-2 3.3-2 6.2 0 18.1.7 25.8.7 4.2 0 13.2-.7 20.1-.7 2.9 0 3.5.7 3.5 1.8 0 .7-.4 2-2.9 2-2 .2-2.6.2-3.7.4-5.7.7-7.7 3.3-8.2 13.7-1.5 31.1-2 64.6-2.2 97.9 0 9.5-1.1 11.2-3.5 11.2-2.9 0-8.8-4.2-22.3-15.2-11.9-9.9-25.4-21.6-33.5-28.9-9-8.2-23.8-20.7-38.4-34.2l1.8 53.6c.4 11.5.7 16.1 6 17.4 3.3.7 5.1.9 8.6 1.1 2.9.4 3.5.9 3.5 2 0 1.3-1.1 2-4.2 2-4.9 0-9.9-.4-21.8-.7-4.9 0-18.7.7-24.3.7-2.9 0-3.7-.7-3.7-2 0-.9.7-1.8 3.1-2 1.8-.2 2.6-.2 4.9-.4 7.1-.9 8.6-4.9 9-20.1.3-33.7.3-71.9 1-93.9z" fill="#0071bc" stroke="url(#SVGID_9_)" stroke-miterlimit="10"/><linearGradient id="SVGID_10_" gradientUnits="userSpaceOnUse" x1="560.9" y1="142.088" x2="987.154" y2="142.088"><stop offset="0" stop-color="#0071bc" stop-opacity=".3"/><stop offset="1" stop-color="#e0e0e0"/></linearGradient><path d="M983.3 188c-1.1.9-2.6 2.2-4.2 3.5-.9.7-1.8 1.5-2.6 2.2-1.1.7-2.2 1.5-3.3 2.2-2.2 1.5-4.9 3.3-7.7 5.3-2.9 1.8-6 3.5-9.3 5.7-3.3 2-7.1 3.7-11 5.7-2 1.1-4 1.8-6.2 2.9-2.2.9-4.2 1.8-6.4 2.6-2.2.9-4.6 1.5-6.8 2.4-2.4.9-4.6 1.8-7.3 2.4-2.4.7-5.1 1.3-7.5 2-1.3.4-2.6.7-3.7 1.1-1.3.2-2.6.7-4 .9-2.6.7-5.3 1.1-8.2 1.8-2.9.4-5.5.9-8.4 1.3-1.3.2-2.9.4-4.2.7-1.5.2-2.9.2-4.4.4-2.9.2-5.7.4-8.8.7-11.9.4-24 .4-36.4-.9s-24.7-3.5-36.8-6.8-24-7.3-35.3-12.4c-2.9-1.1-5.5-2.6-8.4-4-2.6-1.3-5.5-2.6-8.2-4.2-2.6-1.5-5.3-2.9-7.9-4.4-2.4-1.5-5.1-3.1-7.5-4.6-1.3-.9-2.4-1.5-3.7-2.2-1.1-.9-2.4-1.5-3.5-2.4-2.4-1.5-4.6-3.3-6.8-4.9-4.4-3.5-8.8-6.6-12.6-10.4-2-1.8-4-3.5-6-5.3l-5.3-5.3-2.6-2.6c-.9-.9-1.5-1.8-2.4-2.6-1.5-1.8-3.1-3.5-4.6-5.3-2.9-3.5-5.5-7.1-8.2-10.1-2.4-3.5-4.6-6.6-6.6-9.7-2-3.1-3.5-6.2-5.3-8.8-.9-1.3-1.5-2.6-2.2-4-.7-1.3-1.3-2.4-1.8-3.5-2.4-4.2-4-8.8-5.1-11.5 0-.2-.2-.4-.2-.4 8.4-6.6 14.1-16.3 14.1-28.9 0-11.2-5.3-18.5-9-22.1-6.6-6.2-17.6-11.5-40.1-11.5-7.7 0-17 .4-24.9.4-2.9 0-19.8-.4-26.9-.4-3.1 0-3.7.7-3.7 1.8s.7 1.5 2.9 1.5c2 .2 4.2.2 6.4.7 4 .9 5.7 3.7 6.2 8.4.4 5.3.9 17.4.9 35.7v29.3c0 16.1-.7 28-1.3 34.8-.7 6.4-2.4 8.6-5.7 9.3-1.8.4-3.3.4-5.1.7-1.8 0-3.3.4-3.3 1.8 0 1.1.9 1.8 3.3 1.8 5.7 0 23.8-.4 24.5-.4 1.5 0 19.2.4 30.7.4 2.4 0 3.3-.7 3.3-1.5 0-1.3-.7-1.8-3.1-1.8-2-.2-5.1-.4-7.3-.9-5.1-1.1-6.2-4.2-6.6-9-.9-7.1-.9-22.1-.9-35.1V57c0-2.9.7-3.7 2-4.2 1.1-.2 2.4-.4 4.4-.4 5.7 0 11.5 2.2 15.9 6.8 6 6.4 8.2 15.7 8.2 27.1 0 15-6.6 25.8-20.5 25.8-3.1 0-3.7.7-3.7 1.8s.9 1.3 1.8 1.8c1.1.4 4 .4 5.1.4 3.5 0 6.8-.2 10.4-.9.2.2.2.4.4.9 1.3 2.6 2.9 6.6 6.2 12.1.7 1.3 1.5 2.6 2.4 4.2s1.8 3.1 2.6 4.4c2 3.1 4.2 6.2 6.6 9.7 2.6 3.3 5.3 6.8 8.2 10.4 3.1 3.5 6.2 7.3 9.7 10.8l5.5 5.5c.9.9 2 1.8 2.9 2.9 1.1.9 2 1.8 3.1 2.6 2 1.8 4.2 3.5 6.2 5.5 2.2 1.8 4.4 3.5 6.6 5.3 4.4 3.7 9.5 6.8 14.3 10.4 2.4 1.8 5.1 3.1 7.7 4.9 1.3.9 2.6 1.5 4 2.4 1.3.9 2.6 1.5 4.2 2.2 2.6 1.5 5.5 2.9 8.4 4.4 2.9 1.3 5.7 2.6 8.6 4.2 2.9 1.3 6 2.6 8.8 3.7 3.1 1.1 6 2.6 9 3.5 12.1 4.6 24.9 7.9 37.9 10.8 13 2.6 26 4.2 38.8 4.9 13 .7 25.6 0 37.9-1.3 3.1-.4 6-.9 9-1.3 1.5-.2 2.9-.4 4.4-.7 1.5-.2 2.9-.7 4.4-.9 2.9-.7 5.7-1.1 8.6-1.8 2.9-.7 5.5-1.5 8.2-2.2 1.3-.4 2.6-.7 4-1.1 1.3-.4 2.6-.9 4-1.3 2.6-.9 5.1-1.8 7.5-2.6 2.4-.9 4.9-2 7.3-2.9 2.4-1.1 4.6-1.8 6.8-2.9s4.4-2.2 6.4-3.1c2-1.1 4.2-2 6-3.1 3.7-2.2 7.5-4.2 10.8-6.4s6.4-4.4 9-6.2c2.6-2.2 5.1-4 7.3-5.7 1.1-.9 2.2-1.8 3.1-2.4.9-.9 1.8-1.5 2.6-2.4 1.6-2.2 2.9-3.3 4-4.6 2.4-1.8 3.5-2.9 3.5-2.9s-1.3.9-3.5 2.9z" fill="#0071bc" stroke="url(#SVGID_10_)" stroke-miterlimit="10"/></svg>