<svg version="1.1" id="Layer_1" xmlns="http://www.w3.org/2000/svg" x="0" y="0" viewBox="0 0 800 600" xml:space="preserve"><style>.st0{fill:#f5f5f5}.st1{fill:#f2f2f2}.st2{fill:#fff}.st9{fill:#0071bc}.st11{fill:#dbbdbd}.st12{fill:#0a0e24}.st14{fill:#55536e}.st15{opacity:.1;enable-background:new}</style><ellipse class="st0" cx="637.5" cy="505" rx="79.5" ry="22"/><ellipse class="st0" cx="193" cy="551" rx="108" ry="17"/><path class="st1" d="M589.8 261C563.4 157.1 472.1 82.1 365 79.1c-56.6-1.6-116.2 17.2-159.6 82.9-77.6 117.5 4.8 198.7 62.2 237.3 27.7 18.7 52.7 41.1 74.2 66.7 38.8 46 113.4 103.2 202.2 13.6 64.4-64.9 63.4-149.4 45.8-218.6z"/><circle transform="rotate(-82.108 340.194 45.739)" class="st2" cx="340.2" cy="45.7" r="16.8"/><linearGradient id="SVGID_1_" gradientUnits="userSpaceOnUse" x1="380.418" y1="140.975" x2="380.418" y2="474.62" gradientTransform="matrix(1 0 0 -1 0 602)"><stop offset="0" stop-color="gray" stop-opacity=".25"/><stop offset=".54" stop-color="gray" stop-opacity=".12"/><stop offset="1" stop-color="gray" stop-opacity=".1"/></linearGradient><path fill="url(#SVGID_1_)" d="M139.8 127.4V461H621V127.4z"/><path class="st2" d="M147 148.1h468.9v307H147z"/><path class="st0" d="M147 133.5h468.9v22.6H147z"/><circle cx="164.8" cy="144.5" r="5.5" fill="#ff5252"/><circle cx="179.9" cy="144.5" r="5.5" fill="#ff0"/><circle cx="194.9" cy="144.5" r="5.5" fill="#69f0ae"/><path d="M275.2 269.9h94.4v9.2h-94.4zm116.3 0h94.4v9.2h-94.4zm-116.7 19.9h210.8v9.2H274.8zm0 19.8h210.8v9.2H274.8z" fill="#e0e0e0"/><linearGradient id="SVGID_2_" gradientUnits="userSpaceOnUse" x1="380.247" y1="232.854" x2="380.247" y2="249.964" gradientTransform="matrix(1 0 0 -1 0 602)"><stop offset="0" stop-color="gray" stop-opacity=".25"/><stop offset=".54" stop-color="gray" stop-opacity=".12"/><stop offset="1" stop-color="gray" stop-opacity=".1"/></linearGradient><path fill="url(#SVGID_2_)" d="M336.4 352H424v17.1h-87.6z"/><path class="st9" d="M337.1 353.6h86.2v14h-86.2z"/><path d="M411.1 198.9v13.9c0 .4-.2.7-.5.9l-11.4 6.6v13c0 .4-.2.7-.5.9L375 247.8c-.1 0-.1.1-.2.1h-.7c-.1 0-.1 0-.2-.1l-23.8-13.7c-.3-.2-.5-.5-.5-.9V192c0-.1 0-.1.1-.2 0 0 0-.1.1-.1l.1-.1s.1 0 .1-.1l.1-.1 11.9-6.9c.3-.2.7-.2 1 0l11.9 6.9.1.1s.1 0 .1.1l.1.1s0 .1.1.1c0 0 0 .1.1.2v25.9l9.9-5.7v-13.4c0-.1 0-.1.1-.2 0 0 0-.1.1-.1l.1-.1s.1 0 .1-.1l.1-.1 11.9-6.9c.3-.2.7-.2 1 0l11.9 6.9.1.1s.1 0 .1.1l.1.1s0 .1.1.1c.1.1.1.2.1.3zm-1.9 13.3v-11.3l-4.2 2.4-5.8 3.3v11.3l10-5.7zm-11.9 20.5v-11.3l-5.7 3.2-16.2 9.2v11.4c.1 0 21.9-12.5 21.9-12.5zm-45.7-38.5v38.5l21.8 12.6v-11.4l-11.4-6.5-.1-.1s-.1 0-.1-.1l-.1-.1-.1-.1s0-.1-.1-.1V200l-5.8-3.3-4.1-2.5zm11-7.5l-9.9 5.7 9.9 5.7 9.9-5.7-9.9-5.7zm5.1 35.7l5.8-3.3v-24.9l-4.2 2.4-5.8 3.3v24.9l4.2-2.4zm30.6-28.9l-9.9 5.7 9.9 5.7 9.9-5.7-9.9-5.7zm-1 13.1l-5.8-3.3-4.2-2.4v11.3l5.8 3.3 4.2 2.4v-11.3zm-22.8 25.5l14.5-8.3 7.3-4.2-9.9-5.7-11.4 6.6-10.4 6 9.9 5.6z" fill-rule="evenodd" clip-rule="evenodd" fill="#e91e63"/><path class="st11" d="M669.6 459l-2.5 29.1-11.4 2.5-2.5-7.6s4.4-20.9 4.4-24.7l12 .7zM638 438.7s5.1 12.7 7 13.9c1.9 1.3-5.7 17.7-5.7 17.7l-11.4-1.9s3.8-13.3.6-20.9l9.5-8.8z"/><path class="st12" d="M641.5 446s4.7 1.6 6.6 8.5c1.9 7 1.9 7.6 1.9 7.6l-3.2 7h-1.9s-3.2 10.8-2.5 14.6c.6 3.8-4.4 18.3-13.3 17.7s-7-11.4-7-11.4l4.4-22.1s0-5.7 1.3-5.7 11.4 1.9 11.4 1.9v1.9c.1-.1 7.3-9.9 2.3-20zm16.1 38.9v-3.8s13.3 1.9 13.3 3.8v4.4s11.4 24-1.3 24c-12.7 0-15.2-5.1-15.2-5.1v-7s-6.3-3.2-6.3-5.1 6.2-18.7 6.2-18.7.1 10.1 3.3 7.5z"/><circle class="st11" cx="672.8" cy="151.5" r="20.2"/><path class="st11" d="M680.7 167s-2.5 12-2.5 13.3c0 1.3-12 7-12 7l-10.8-1.9-3.8-11.4s6.3-9.5 6.3-13.3l22.8 6.3z"/><path class="st9" d="M679 175.3s-6.5 10.6-16 7.5c-5.4-1.6-9.2-6.6-9.3-12.2l-31.2 11 5.7 46.2-5.1 53.8 3.8 7h55.7s1.9-9.5 2.5-9.5 1.9-1.9 1.3-2.5c-.6-.6-1.9-1.3-1.3-3.2.6-1.9 1.3-22.8 1.3-22.8l19-55-26.4-20.3z"/><path class="st11" d="M703.2 295.8L691.8 311s-1.9-15.8-4.4-16.4l6.3-4.4 9.5 5.6zm-126.6-12.1s-17.1 10.8-15.2 17.7 21.5-12 21.5-12.7-6.3-5-6.3-5z"/><path class="st12" d="M682.9 283.7h1.3l1.9 8.9s10.1 8.9 5.1 22.8L681 381.8l-1.3 77.2-11.4 3.2-12.7-2.5-3.2-103.1s-4.4-9.5-2.5-12.7-.6-2.5-.6-2.5L636.1 378s4.4 12 0 15.8c0 0 .6 1.9 0 2.5-.6.6-3.8 3.2-2.5 4.4s1.9 0 1.9 1.9 6.3 17.7 3.8 38l-8.2 12.7-7.6-4.4-13.9-39.2s3.2-5.7 0-7-3.8-2.5-2.5-4.4c1.3-1.9 1.3-8.2-.6-11.4s0-8.2 0-8.2l7-63.9s-3.2-17.1 7.6-25.9l1.9-7c-.2-.1 15.6 11.3 59.9 1.8zm7.4-148.5s-6.4-13.9-18.7-10.7-19.3 8-19.8 12.9c-.5 4.8.3 12.1.3 12.1s1.3-9.9 9.9-7.8 22 .5 22 .5l2.1 19.3s2.4-3.5 5.1-1.3c2.6 2 7.7-20.7-.9-25z"/><path class="st9" d="M695.9 195.5h9.5s8.2 7 7.6 20.2l4.4 37.3s0 18.3-7.6 31.6l-8.2 15.8s-3.2-8.9-12.7-7.6l5.1-13.3v-3.2s1.9-2.5 1.9-3.2-2.5-.6-.6-1.9c1.9-1.3 3.8-13.9 3.8-13.9s-.6-2.5-1.3-3.2c-.6-.6.6-2.5.6-2.5l-1.3-1.9-8.2-31 7-23.2zm-62.7-15.8l-10.8 1.9s-6.3 6.3-8.9 13.9l-5.1 22.8-8.2 16.4s-9.5 9.5-16.4 31l-10.1 19 10.8 6.3s29.7-34.8 33.5-46.8l16.4-31.6-1.2-32.9z"/><path class="st1" d="M155 372.2c0 36.5-21.7 49.1-48.4 49.1s-48.4-12.7-48.4-49.1 48.4-82.8 48.4-82.8 48.4 46.3 48.4 82.8z"/><path fill="#223460" d="M104.8 415.7l.5-30.4 20.7-37.8-20.6 33 .2-13.7 14.3-27.4-14.2 23.7.4-24.6 15.2-21.8-15.2 17.9.3-45.2-1.6 59.8.2-2.5-15.5-23.6 15.2 28.4-1.4 27.5-.1-.7-17.8-24.9 17.8 27.5-.2 3.5v.3l-3.7 69.9h4.9l.6-36.1 17.7-27.5z"/><path class="st12" d="M112.6 537s-5.1 21.4-.5 22.3c4.7.9 27.5.6 33 1.6 5.6.9 17.2-.6 17.2-4.8s-12.1-7-12.1-7-17.2-9.3-17.7-9.8c-.3-.4-19.9-2.3-19.9-2.3z"/><path class="st14" d="M116.8 410.9s1.4 15.8 1.4 17.2c0 1.4-1.4 23.3 0 24.2 1.4.9-.9 7.4-.9 9.8s-7.4 41-5.6 55.8c1.9 14.9-2.8 13.5-1.4 14.9 1.4 1.4 1.4 1.4 1.4 4.2 0 2.8 14.9 5.1 14.9 5.1l16.3-102.8-8.4-30.7-17.7 2.3z"/><path class="st15" d="M116.8 410.9s1.4 15.8 1.4 17.2c0 1.4-1.4 23.3 0 24.2 1.4.9-.9 7.4-.9 9.8s-7.4 41-5.6 55.8c1.9 14.9-2.8 13.5-1.4 14.9 1.4 1.4 1.4 1.4 1.4 4.2 0 2.8 14.9 5.1 14.9 5.1l16.3-102.8-8.4-30.7-17.7 2.3z"/><path class="st12" d="M119.2 543.5s-4.7 16.8 0 17.7 27.5-1.1 33-.1 17.2 1.1 17.2-3.1-12.1-7-12.1-7-17.2-9.3-17.7-9.8-20.4 2.3-20.4 2.3z"/><path class="st14" d="M112.6 392.3s-5.6 13.5.9 20.5 14 20.9 14 21.9c0 .9-13 93.5-11.2 99.6 1.9 6 1.4 9.8.9 10.7s4.7 6 10.2 6c5.6 0 14-4.2 14.9-7.9.9-3.7-1.4-35.8-.9-41.9.5-6 2.8-14.9 3.7-16.8.9-1.9 6-3.7 7-9.3s8.4-76.8 6-79.1c-2.2-2.3-45.5-3.7-45.5-3.7z"/><circle class="st11" cx="148" cy="269.4" r="15.8"/><path class="st11" d="M138.2 277.4s3.3 17.2.9 19.1c-2.3 1.9 17.7 4.7 17.7 4.7s2.3-22.8 2.8-25.1c.5-2.5-21.4 1.3-21.4 1.3z"/><path class="st9" d="M159.6 299.7s-5.6-16.3-28.4-11.6c0 0-4.2 1.4-2.8 2.8 1.4 1.4 2.8 1.4.9 2.8s-4.2 0-2.8 1.4c1.4 1.4-12.6 9.8-11.6 25.6.9 15.8-3.3 38.2 0 41.9 3.3 3.7-2.3 20-1.4 23.3.9 3.3-5.6 7.4-2.8 8.8 2.8 1.4 53.1 9.8 54.4 0 1.4-9.8.5-2.8 1.9-5.1s1.9-6.5.9-11.6-3.3-17.7-2.3-22.3c.9-4.7 0-43.7-2.8-48.4-2.7-4.8-3.2-7.6-3.2-7.6z"/><path class="st11" d="M149.9 413.2s-7 26.5 1.9 26.5c8.8 0 8.4-27.5 8.4-27.5l-10.3 1z"/><path class="st12" d="M155 269.4c0 1.3-2 2.2-5 2.4-1.3.1-2.6 0-3.9-.1-1.9-.2-2.7 1.6-3.1 4-.5 4 .2 9.5-.7 10.4-1.2 1.2-10 0-12.7-2.7-.4-.4-.7-.9-.8-1.5-.3-1.7-1.1-3.2-2.3-4.3-1.6-1.8-3.9-3.7-6.5-6.8-4.7-5.6 0-6 1.4-10.2 1.4-4.2 3.7-5.6 3.7-8.4s10.7-5.1 19.5-4.7c8.8.5 7 11.6 7 11.6s.5 1.3 1.2 3.1c.8 2.2 1.5 4.4 2.1 6.7.1.3.1.4.1.5z"/><path class="st14" d="M167.6 250.8v-4.2l-12.6 1-1.7 6.9 3.5 4.5 8.4-5.4z"/><path class="st15" d="M167.6 250.8v-4.2l-12.6 1-1.7 6.9 3.5 4.5 8.4-5.4z"/><path class="st14" d="M175 259.7l-8.4 2.3-8.4 5.1-3.2 1.9-4.9 2.8-6.9 4-13.3 7.7c-.4-.4-.7-.9-.8-1.5-.3-1.7-1.1-3.2-2.3-4.3l26.3-15.4 2.1-1.2 12.6-14.4 7.2 13z"/><path class="st15" d="M153.1 306.7s-15.8-.9-17.2 22.3c-1.4 23.3-.9 45.1-.9 45.6s6.5 44.7 12.6 44.7c6 0 10.7-.9 12.1-3.3s-3.7-35.8-3.7-35.8-2.3-35.4 1.4-46.5c3.6-11.2 4.1-25.6-4.3-27z"/><path class="st9" d="M155.5 304.3s-15.8-.9-17.2 22.3-.9 45.1-.9 45.6 6.5 44.7 12.6 44.7c6 0 10.7-.9 12.1-3.3s-3.7-35.8-3.7-35.8-2.3-35.4 1.4-46.5c3.6-11.1 4-25.6-4.3-27z"/></svg>