<?xml version="1.0" encoding="utf-8"?>
<!-- Generator: Adobe Illustrator 23.0.2, SVG Export Plug-In . SVG Version: 6.00 Build 0)  -->
<svg version="1.1" id="Layer_1" xmlns="http://www.w3.org/2000/svg" xmlns:xlink="http://www.w3.org/1999/xlink" x="0px" y="0px"
	 viewBox="0 0 800 600" style="enable-background:new 0 0 800 600;" xml:space="preserve">
<style type="text/css">
	.st0{fill:#F5F5F5;}
	.st1{fill:#F2F2F2;}
	.st2{fill:#FFFFFF;}
	.st3{fill:url(#SVGID_1_);}
	.st4{fill:#FF5252;}
	.st5{fill:#FFFF00;}
	.st6{fill:#69F0AE;}
	.st7{fill:#E0E0E0;}
	.st8{fill:url(#SVGID_2_);}
	.st9{fill:#0071BC;}
	.st10{fill-rule:evenodd;clip-rule:evenodd;fill:#E91E63;}
	.st11{fill:#DBBDBD;}
	.st12{fill:#0A0E24;}
	.st13{fill:#223460;}
	.st14{fill:#55536E;}
	.st15{opacity:0.1;enable-background:new    ;}
</style>
<ellipse class="st0" cx="637.5" cy="505" rx="79.5" ry="22"/>
<ellipse class="st0" cx="193" cy="551" rx="108" ry="17"/>
<path class="st1" d="M589.8,261C563.4,157.1,472.1,82.1,365,79.1c-56.6-1.6-116.2,17.2-159.6,82.9c-77.6,117.5,4.8,198.7,62.2,237.3
	c27.7,18.7,52.7,41.1,74.2,66.7c38.8,46,113.4,103.2,202.2,13.6C608.4,414.7,607.4,330.2,589.8,261z"/>
<ellipse transform="matrix(0.1373 -0.9905 0.9905 0.1373 248.171 376.4197)" class="st2" cx="340.2" cy="45.7" rx="16.8" ry="16.8"/>
<g>
	
		<linearGradient id="SVGID_1_" gradientUnits="userSpaceOnUse" x1="380.4175" y1="140.9747" x2="380.4175" y2="474.6198" gradientTransform="matrix(1 0 0 -1 0 602)">
		<stop  offset="0" style="stop-color:#808080;stop-opacity:0.25"/>
		<stop  offset="0.54" style="stop-color:#808080;stop-opacity:0.12"/>
		<stop  offset="1" style="stop-color:#808080;stop-opacity:0.1"/>
	</linearGradient>
	<polygon class="st3" points="139.8,127.4 139.8,144.2 139.8,461 621,461 621,144.2 621,127.4 	"/>
	<rect x="147" y="148.1" class="st2" width="468.9" height="307"/>
	<rect x="147" y="133.5" class="st0" width="468.9" height="22.6"/>
	<circle class="st4" cx="164.8" cy="144.5" r="5.5"/>
	<circle class="st5" cx="179.9" cy="144.5" r="5.5"/>
	<circle class="st6" cx="194.9" cy="144.5" r="5.5"/>
	<rect x="275.2" y="269.9" class="st7" width="94.4" height="9.2"/>
	<rect x="391.5" y="269.9" class="st7" width="94.4" height="9.2"/>
	<rect x="274.8" y="289.8" class="st7" width="210.8" height="9.2"/>
	<rect x="274.8" y="309.6" class="st7" width="210.8" height="9.2"/>
	
		<linearGradient id="SVGID_2_" gradientUnits="userSpaceOnUse" x1="380.2473" y1="232.854" x2="380.2473" y2="249.9635" gradientTransform="matrix(1 0 0 -1 0 602)">
		<stop  offset="0" style="stop-color:#808080;stop-opacity:0.25"/>
		<stop  offset="0.54" style="stop-color:#808080;stop-opacity:0.12"/>
		<stop  offset="1" style="stop-color:#808080;stop-opacity:0.1"/>
	</linearGradient>
	<rect x="336.4" y="352" class="st8" width="87.6" height="17.1"/>
	<rect x="337.1" y="353.6" class="st9" width="86.2" height="14"/>
</g>
<path class="st10" d="M411.1,198.9c0,0.1,0,0.2,0,0.3v13.6c0,0.4-0.2,0.7-0.5,0.9l-11.4,6.6v13c0,0.4-0.2,0.7-0.5,0.9L375,247.8
	c-0.1,0-0.1,0.1-0.2,0.1c0,0,0,0-0.1,0c-0.2,0-0.3,0-0.5,0c0,0-0.1,0-0.1,0c-0.1,0-0.1,0-0.2-0.1l-23.8-13.7
	c-0.3-0.2-0.5-0.5-0.5-0.9v-40.8c0-0.1,0-0.2,0-0.3c0,0,0-0.1,0-0.1c0-0.1,0-0.1,0.1-0.2c0,0,0-0.1,0.1-0.1c0,0,0.1-0.1,0.1-0.1
	c0,0,0.1,0,0.1-0.1c0,0,0.1-0.1,0.1-0.1h0l11.9-6.9c0.3-0.2,0.7-0.2,1,0l11.9,6.9h0c0,0,0.1,0.1,0.1,0.1c0,0,0.1,0,0.1,0.1
	c0,0,0.1,0.1,0.1,0.1c0,0,0,0.1,0.1,0.1c0,0,0,0.1,0.1,0.2c0,0,0,0.1,0,0.1c0,0.1,0,0.2,0,0.3v25.5l9.9-5.7v-13c0-0.1,0-0.2,0-0.3
	c0,0,0-0.1,0-0.1c0-0.1,0-0.1,0.1-0.2c0,0,0-0.1,0.1-0.1c0,0,0.1-0.1,0.1-0.1c0,0,0.1,0,0.1-0.1c0,0,0.1-0.1,0.1-0.1h0l11.9-6.9
	c0.3-0.2,0.7-0.2,1,0l11.9,6.9c0,0,0.1,0.1,0.1,0.1c0,0,0.1,0,0.1,0.1c0,0,0.1,0.1,0.1,0.1c0,0,0,0.1,0.1,0.1
	C411.1,198.7,411.1,198.8,411.1,198.9C411.1,198.9,411.1,198.9,411.1,198.9z M409.2,212.2v-11.3l-4.2,2.4l-5.8,3.3v11.3L409.2,212.2
	L409.2,212.2z M397.3,232.7v-11.3l-5.7,3.2l-16.2,9.2v11.4C375.5,245.2,397.3,232.7,397.3,232.7z M351.6,194.2v38.5l21.8,12.6v-11.4
	l-11.4-6.5l0,0l0,0c0,0-0.1-0.1-0.1-0.1c0,0-0.1,0-0.1-0.1l0,0c0,0-0.1-0.1-0.1-0.1c0,0-0.1-0.1-0.1-0.1l0,0c0,0,0-0.1-0.1-0.1
	c0,0,0-0.1,0-0.1v0c0,0,0-0.1,0-0.1c0,0,0-0.1,0-0.1v0v-26.6l-5.8-3.3L351.6,194.2L351.6,194.2z M362.6,186.7l-9.9,5.7l9.9,5.7
	l9.9-5.7L362.6,186.7L362.6,186.7z M367.7,222.4l5.8-3.3v-24.9l-4.2,2.4l-5.8,3.3v24.9C363.5,224.8,367.7,222.4,367.7,222.4z
	 M398.3,193.5l-9.9,5.7l9.9,5.7l9.9-5.7C408.2,199.2,398.3,193.5,398.3,193.5z M397.3,206.6l-5.8-3.3l-4.2-2.4v11.3l5.8,3.3l4.2,2.4
	C397.3,217.9,397.3,206.6,397.3,206.6z M374.5,232.1l14.5-8.3l7.3-4.2l-9.9-5.7l-11.4,6.6l-10.4,6
	C364.6,226.5,374.5,232.1,374.5,232.1z"/>
<g>
	<title>close_tab</title>
	<path class="st11" d="M669.6,459l-2.5,29.1l-11.4,2.5l-2.5-7.6c0,0,4.4-20.9,4.4-24.7L669.6,459z"/>
	<path class="st11" d="M638,438.7c0,0,5.1,12.7,7,13.9c1.9,1.3-5.7,17.7-5.7,17.7l-11.4-1.9c0,0,3.8-13.3,0.6-20.9L638,438.7z"/>
	<path class="st12" d="M641.5,446c0,0,4.7,1.6,6.6,8.5c1.9,7,1.9,7.6,1.9,7.6l-3.2,7h-1.9c0,0-3.2,10.8-2.5,14.6
		c0.6,3.8-4.4,18.3-13.3,17.7s-7-11.4-7-11.4l4.4-22.1c0,0,0-5.7,1.3-5.7s11.4,1.9,11.4,1.9v1.9C639.3,465.9,646.5,456.1,641.5,446z
		"/>
	<path class="st12" d="M657.6,484.9v-3.8c0,0,13.3,1.9,13.3,3.8v4.4c0,0,11.4,24-1.3,24c-12.7,0-15.2-5.1-15.2-5.1v-7
		c0,0-6.3-3.2-6.3-5.1s6.2-18.7,6.2-18.7S654.4,487.5,657.6,484.9z"/>
	<circle class="st11" cx="672.8" cy="151.5" r="20.2"/>
	<path class="st11" d="M680.7,167c0,0-2.5,12-2.5,13.3c0,1.3-12,7-12,7l-10.8-1.9l-3.8-11.4c0,0,6.3-9.5,6.3-13.3L680.7,167z"/>
	<path class="st9" d="M679,175.3c0,0-6.5,10.6-16,7.5c-5.4-1.6-9.2-6.6-9.3-12.2l-31.2,11l5.7,46.2l-5.1,53.8l3.8,7h55.7
		c0,0,1.9-9.5,2.5-9.5s1.9-1.9,1.3-2.5c-0.6-0.6-1.9-1.3-1.3-3.2c0.6-1.9,1.3-22.8,1.3-22.8l19-55L679,175.3z"/>
	<path class="st11" d="M703.2,295.8l-11.4,15.2c0,0-1.9-15.8-4.4-16.4l6.3-4.4L703.2,295.8z"/>
	<path class="st11" d="M576.6,283.7c0,0-17.1,10.8-15.2,17.7s21.5-12,21.5-12.7S576.6,283.7,576.6,283.7z"/>
	<path class="st12" d="M682.9,283.7h1.3l1.9,8.9c0,0,10.1,8.9,5.1,22.8L681,381.8l-1.3,77.2l-11.4,3.2l-12.7-2.5l-3.2-103.1
		c0,0-4.4-9.5-2.5-12.7s-0.6-2.5-0.6-2.5L636.1,378c0,0,4.4,12,0,15.8c0,0,0.6,1.9,0,2.5c-0.6,0.6-3.8,3.2-2.5,4.4s1.9,0,1.9,1.9
		s6.3,17.7,3.8,38l-8.2,12.7l-7.6-4.4l-13.9-39.2c0,0,3.2-5.7,0-7s-3.8-2.5-2.5-4.4c1.3-1.9,1.3-8.2-0.6-11.4s0-8.2,0-8.2l7-63.9
		c0,0-3.2-17.1,7.6-25.9l1.9-7C622.8,281.8,638.6,293.2,682.9,283.7z"/>
	<path class="st12" d="M690.3,135.2c0,0-6.4-13.9-18.7-10.7s-19.3,8-19.8,12.9c-0.5,4.8,0.3,12.1,0.3,12.1s1.3-9.9,9.9-7.8
		s22,0.5,22,0.5l2.1,19.3c0,0,2.4-3.5,5.1-1.3C693.8,162.2,698.9,139.5,690.3,135.2z"/>
	<path class="st9" d="M695.9,195.5h9.5c0,0,8.2,7,7.6,20.2l4.4,37.3c0,0,0,18.3-7.6,31.6l-8.2,15.8c0,0-3.2-8.9-12.7-7.6l5.1-13.3
		v-3.2c0,0,1.9-2.5,1.9-3.2s-2.5-0.6-0.6-1.9c1.9-1.3,3.8-13.9,3.8-13.9s-0.6-2.5-1.3-3.2c-0.6-0.6,0.6-2.5,0.6-2.5l-1.3-1.9
		l-8.2-31L695.9,195.5z"/>
	<path class="st9" d="M633.2,179.7l-10.8,1.9c0,0-6.3,6.3-8.9,13.9l-5.1,22.8l-8.2,16.4c0,0-9.5,9.5-16.4,31l-10.1,19l10.8,6.3
		c0,0,29.7-34.8,33.5-46.8l16.4-31.6L633.2,179.7z"/>
</g>
<g>
	<path class="st1" d="M155,372.2c0,36.5-21.7,49.1-48.4,49.1s-48.4-12.7-48.4-49.1s48.4-82.8,48.4-82.8S155,335.7,155,372.2z"/>
	<polygon class="st13" points="104.8,415.7 105.3,385.3 126,347.5 105.4,380.5 105.6,366.8 119.9,339.4 105.7,363.1 105.7,363.1 
		106.1,338.5 121.3,316.7 106.1,334.6 106.4,289.4 104.8,349.2 105,346.7 89.5,323.1 104.7,351.5 103.3,379 103.2,378.3 85.4,353.4 
		103.2,380.9 103,384.4 103,384.4 103,384.7 99.3,454.6 104.2,454.6 104.8,418.5 122.5,391 	"/>
</g>
<g>
	<path class="st12" d="M112.6,537c0,0-5.1,21.4-0.5,22.3c4.7,0.9,27.5,0.6,33,1.6c5.6,0.9,17.2-0.6,17.2-4.8s-12.1-7-12.1-7
		s-17.2-9.3-17.7-9.8C132.2,538.9,112.6,537,112.6,537z"/>
	<path class="st14" d="M116.8,410.9c0,0,1.4,15.8,1.4,17.2c0,1.4-1.4,23.3,0,24.2c1.4,0.9-0.9,7.4-0.9,9.8s-7.4,41-5.6,55.8
		c1.9,14.9-2.8,13.5-1.4,14.9c1.4,1.4,1.4,1.4,1.4,4.2c0,2.8,14.9,5.1,14.9,5.1l16.3-102.8l-8.4-30.7L116.8,410.9z"/>
	<path class="st15" d="M116.8,410.9c0,0,1.4,15.8,1.4,17.2c0,1.4-1.4,23.3,0,24.2c1.4,0.9-0.9,7.4-0.9,9.8s-7.4,41-5.6,55.8
		c1.9,14.9-2.8,13.5-1.4,14.9c1.4,1.4,1.4,1.4,1.4,4.2c0,2.8,14.9,5.1,14.9,5.1l16.3-102.8l-8.4-30.7L116.8,410.9z"/>
	<path class="st12" d="M119.2,543.5c0,0-4.7,16.8,0,17.7s27.5-1.1,33-0.1s17.2,1.1,17.2-3.1c0-4.2-12.1-7-12.1-7s-17.2-9.3-17.7-9.8
		S119.2,543.5,119.2,543.5z"/>
	<path class="st14" d="M112.6,392.3c0,0-5.6,13.5,0.9,20.5c6.5,7,14,20.9,14,21.9c0,0.9-13,93.5-11.2,99.6c1.9,6,1.4,9.8,0.9,10.7
		s4.7,6,10.2,6c5.6,0,14-4.2,14.9-7.9c0.9-3.7-1.4-35.8-0.9-41.9c0.5-6,2.8-14.9,3.7-16.8c0.9-1.9,6-3.7,7-9.3s8.4-76.8,6-79.1
		C155.9,393.7,112.6,392.3,112.6,392.3z"/>
	<circle class="st11" cx="148" cy="269.4" r="15.8"/>
	<path class="st11" d="M138.2,277.4c0,0,3.3,17.2,0.9,19.1c-2.3,1.9,17.7,4.7,17.7,4.7s2.3-22.8,2.8-25.1
		C160.1,273.6,138.2,277.4,138.2,277.4z"/>
	<path class="st9" d="M159.6,299.7c0,0-5.6-16.3-28.4-11.6c0,0-4.2,1.4-2.8,2.8c1.4,1.4,2.8,1.4,0.9,2.8c-1.9,1.4-4.2,0-2.8,1.4
		c1.4,1.4-12.6,9.8-11.6,25.6c0.9,15.8-3.3,38.2,0,41.9c3.3,3.7-2.3,20-1.4,23.3c0.9,3.3-5.6,7.4-2.8,8.8c2.8,1.4,53.1,9.8,54.4,0
		c1.4-9.8,0.5-2.8,1.9-5.1s1.9-6.5,0.9-11.6s-3.3-17.7-2.3-22.3c0.9-4.7,0-43.7-2.8-48.4C160.1,302.5,159.6,299.7,159.6,299.7z"/>
	<path class="st11" d="M149.9,413.2c0,0-7,26.5,1.9,26.5c8.8,0,8.4-27.5,8.4-27.5L149.9,413.2z"/>
	<path class="st12" d="M155,269.4c0,1.3-2,2.2-5,2.4h0c-1.3,0.1-2.6,0-3.9-0.1c-1.9-0.2-2.7,1.6-3.1,4c-0.5,4,0.2,9.5-0.7,10.4
		c-1.2,1.2-10,0-12.7-2.7c-0.4-0.4-0.7-0.9-0.8-1.5c-0.3-1.7-1.1-3.2-2.3-4.3c-1.6-1.8-3.9-3.7-6.5-6.8c-4.7-5.6,0-6,1.4-10.2
		c1.4-4.2,3.7-5.6,3.7-8.4s10.7-5.1,19.5-4.7c8.8,0.5,7,11.6,7,11.6s0.5,1.3,1.2,3.1c0.8,2.2,1.5,4.4,2.1,6.7
		C155,269.2,155,269.3,155,269.4z"/>
	<polygon class="st14" points="167.6,250.8 167.6,246.6 155,247.6 153.3,254.5 156.8,259 165.2,253.6 	"/>
	<polygon class="st15" points="167.6,250.8 167.6,246.6 155,247.6 153.3,254.5 156.8,259 165.2,253.6 	"/>
	<path class="st14" d="M175,259.7l-8.4,2.3l-8.4,5.1L155,269l-4.9,2.8h0l-6.9,4l-13.3,7.7c-0.4-0.4-0.7-0.9-0.8-1.5
		c-0.3-1.7-1.1-3.2-2.3-4.3l26.3-15.4l2.1-1.2l12.6-14.4L175,259.7z"/>
	<path class="st15" d="M153.1,306.7c0,0-15.8-0.9-17.2,22.3c-1.4,23.3-0.9,45.1-0.9,45.6s6.5,44.7,12.6,44.7c6,0,10.7-0.9,12.1-3.3
		s-3.7-35.8-3.7-35.8s-2.3-35.4,1.4-46.5C161,322.5,161.5,308.1,153.1,306.7z"/>
	<path class="st9" d="M155.5,304.3c0,0-15.8-0.9-17.2,22.3s-0.9,45.1-0.9,45.6c0,0.5,6.5,44.7,12.6,44.7c6,0,10.7-0.9,12.1-3.3
		s-3.7-35.8-3.7-35.8s-2.3-35.4,1.4-46.5C163.4,320.2,163.8,305.7,155.5,304.3z"/>
</g>
</svg>
